<svg width="30" height="26" viewBox="0 0 30 26" fill="none" xmlns="http://www.w3.org/2000/svg">
<path d="M27.5 4.24994H21.25V2.9999C21.25 1.62113 20.1288 0.499878 18.75 0.499878H11.25C9.87123 0.499878 8.74998 1.62107 8.74998 2.9999V4.24988H2.50002C1.12119 4.24994 0 5.37113 0 6.74991V10.4999C0 11.8787 1.12119 12.9999 2.50002 12.9999H12.5V12.3749C12.5 12.0294 12.7796 11.7499 13.1251 11.7499H16.8751C17.2205 11.7499 17.5001 12.0294 17.5001 12.3749V12.9999H27.5001C28.8788 12.9999 30 11.8787 30 10.4999V6.74991C30 5.37113 28.8788 4.24994 27.5 4.24994ZM18.75 4.24994H11.25V2.9999H18.75V4.24994Z" fill="#FFBB38"/>
<path d="M29.6533 13.6743C29.4403 13.5687 29.1858 13.5931 28.9978 13.7359C28.5534 14.0723 28.0358 14.2498 27.4999 14.2498H17.5V16.1249C17.5 16.4703 17.2205 16.7499 16.875 16.7499H13.125C12.7795 16.7499 12.5 16.4703 12.5 16.1249V14.2498H2.50002C1.96412 14.2498 1.44656 14.0723 1.00219 13.7359C0.813574 13.5919 0.559687 13.5675 0.346641 13.6743C0.134297 13.7799 0 13.9965 0 14.234V22.9999C0 24.3787 1.12119 25.4999 2.50002 25.4999H27.5C28.8788 25.4999 30.0001 24.3787 30.0001 22.9999V14.234C30 13.9965 29.8657 13.7799 29.6533 13.6743Z" fill="#FFBB38"/>
</svg>
