<svg width="24" height="30" viewBox="0 0 24 30" fill="none" xmlns="http://www.w3.org/2000/svg">
<path d="M6.99013 5.625H17.0101L19.1726 3.895C19.9089 3.3075 20.1839 2.35375 19.8726 1.46375C19.5614 0.57375 18.7526 0 17.8126 0H6.18763C5.24763 0 4.43888 0.575 4.12763 1.46375C3.81638 2.3525 4.09138 3.3075 4.82638 3.89375L6.99013 5.625Z" fill="#FFBB38"/>
<path d="M17.1813 7.5H6.81875C3.405 10.8512 0.75 16.7312 0.75 21.5625C0.75 25.7612 2.9725 30 7.9375 30H16.375C20.6162 30 23.25 26.7663 23.25 21.5625C23.25 16.7312 20.595 10.8512 17.1813 7.5ZM11.525 17.8125H12.475C13.9362 17.8125 15.125 19.0013 15.125 20.4625C15.125 21.7763 14.1775 22.8575 12.9375 23.0775V24.0613C12.9375 24.5788 12.5175 24.9988 12 24.9988C11.4825 24.9988 11.0625 24.5788 11.0625 24.0613V23.125H9.8125C9.295 23.125 8.875 22.705 8.875 22.1875C8.875 21.67 9.295 21.25 9.8125 21.25H12.475C12.9025 21.25 13.25 20.9025 13.25 20.475C13.25 20.035 12.9025 19.6875 12.475 19.6875H11.525C10.0638 19.6875 8.875 18.4987 8.875 17.0375C8.875 15.7238 9.8225 14.6425 11.0625 14.4225V13.4375C11.0625 12.92 11.4825 12.5 12 12.5C12.5175 12.5 12.9375 12.92 12.9375 13.4375V14.375H14.1875C14.705 14.375 15.125 14.795 15.125 15.3125C15.125 15.83 14.705 16.25 14.1875 16.25H11.525C11.0975 16.25 10.75 16.5975 10.75 17.025C10.75 17.465 11.0975 17.8125 11.525 17.8125Z" fill="#FFBB38"/>
</svg>
