<svg width="23" height="25" viewBox="0 0 23 25" fill="none" xmlns="http://www.w3.org/2000/svg">
<path d="M10.4424 25C8.28937 25 6.53613 23.2479 6.53613 21.0938C6.53613 20.6625 6.88613 20.3125 7.31738 20.3125C7.74863 20.3125 8.09863 20.6625 8.09863 21.0938C8.09863 22.3866 9.15073 23.4375 10.4424 23.4375C11.734 23.4375 12.7861 22.3866 12.7861 21.0938C12.7861 20.6625 13.1361 20.3125 13.5674 20.3125C13.9986 20.3125 14.3486 20.6625 14.3486 21.0938C14.3486 23.2479 12.5956 25 10.4424 25Z" fill="#FE5C73"/>
<path d="M19.0357 21.875H1.84824C0.843071 21.875 0.0253906 21.0573 0.0253906 20.0521C0.0253906 19.5187 0.257706 19.0136 0.662827 18.6666C0.688957 18.6438 0.716995 18.623 0.746178 18.6041C2.2753 17.2697 3.15039 15.35 3.15039 13.3228V10.4166C3.15039 6.39591 6.42226 3.125 10.442 3.125C10.6087 3.125 10.7889 3.12805 10.9556 3.15628C11.3816 3.22704 11.6692 3.63026 11.5982 4.05521C11.5275 4.48017 11.117 4.7678 10.6993 4.69685C10.6159 4.6833 10.5244 4.6875 10.442 4.6875C7.28381 4.6875 4.71289 7.25727 4.71289 10.4166V13.3228C4.71289 15.8396 3.60968 18.2209 1.68898 19.8551C1.67334 19.8677 1.6598 19.8792 1.64301 19.8906C1.61497 19.9261 1.58789 19.9802 1.58789 20.0521C1.58789 20.1937 1.70672 20.3125 1.84824 20.3125H19.0357C19.1775 20.3125 19.2963 20.1937 19.2963 20.0521C19.2963 19.9791 19.2692 19.9261 19.24 19.8906C19.2244 19.8792 19.2108 19.8677 19.1952 19.8551C17.2734 18.2198 16.1713 15.8396 16.1713 13.3228V12.1876C16.1713 11.7563 16.5213 11.4063 16.9525 11.4063C17.3838 11.4063 17.7338 11.7563 17.7338 12.1876V13.3228C17.7338 15.3511 18.6098 17.2718 20.1411 18.6073C20.1691 18.626 20.1962 18.6459 20.2212 18.6678C20.6265 19.0136 20.8588 19.5187 20.8588 20.0521C20.8588 21.0573 20.0411 21.875 19.0357 21.875Z" fill="#FE5C73"/>
<path d="M17.7338 10.4166C14.8619 10.4166 12.5254 8.08029 12.5254 5.2084C12.5254 2.3365 14.8619 0 17.7338 0C20.6057 0 22.942 2.3365 22.942 5.2084C22.942 8.08029 20.6057 10.4166 17.7338 10.4166ZM17.7338 1.5625C15.7233 1.5625 14.0879 3.19786 14.0879 5.2084C14.0879 7.21874 15.7233 8.8541 17.7338 8.8541C19.7441 8.8541 21.3795 7.21874 21.3795 5.2084C21.3795 3.19786 19.7441 1.5625 17.7338 1.5625Z" fill="#FE5C73"/>
</svg>
