<svg width="20" height="19" viewBox="0 0 20 19" fill="none" xmlns="http://www.w3.org/2000/svg">
<path d="M18.8532 5.23861L17.1834 6.90843C17.0132 7.07867 16.7379 7.07867 16.5676 6.90843L12.547 2.88783C12.3768 2.71759 12.3768 2.4423 12.547 2.27206L14.2168 0.602246C14.8942 -0.0750977 15.9953 -0.0750977 16.6763 0.602246L18.8532 2.77916C19.5342 3.45651 19.5342 4.55764 18.8532 5.23861ZM11.1127 3.70644L1.60086 13.2182L0.832966 17.6192C0.727924 18.2132 1.24589 18.7275 1.83993 18.6261L6.24085 17.8546L15.7526 8.3428C15.9229 8.17256 15.9229 7.89728 15.7526 7.72703L11.732 3.70644C11.5582 3.5362 11.2829 3.5362 11.1127 3.70644ZM5.31358 12.4032C5.11436 12.204 5.11436 11.8853 5.31358 11.6861L10.8917 6.10793C11.0909 5.90871 11.4097 5.90871 11.6089 6.10793C11.8081 6.30715 11.8081 6.6259 11.6089 6.82512L6.03076 12.4032C5.83155 12.6025 5.5128 12.6025 5.31358 12.4032ZM4.00598 15.4495H5.74461V16.7643L3.40832 17.1736L2.28183 16.0471L2.69113 13.7108H4.00598V15.4495Z" fill="white"/>
</svg>
