<svg width="27" height="25" viewBox="0 0 27 25" fill="none" xmlns="http://www.w3.org/2000/svg">
<path d="M25.3716 13.0972C24.938 13.0453 24.5444 13.3551 24.4925 13.7889C23.8424 19.2357 19.2035 23.3434 13.7021 23.3434C8.75397 23.3434 4.50459 20.0205 3.22642 15.3894L4.17274 15.9092C4.55568 16.1195 5.03666 15.9794 5.24677 15.5967C5.45709 15.2137 5.31722 14.7328 4.93429 14.5224L2.50689 13.1893C2.12437 12.9792 1.64379 13.1186 1.43327 13.5009L0.0982465 15.9252C-0.112482 16.308 0.0269738 16.7889 0.409498 16.9997C0.804588 17.1845 1.25612 17.0936 1.48394 16.6884L1.79334 16.1267C3.36072 21.2682 8.14712 24.9254 13.7021 24.9254C20.0041 24.9254 25.3183 20.2183 26.0631 13.9764C26.1151 13.5425 25.8052 13.1489 25.3716 13.0972Z" fill="#16DBCC"/>
<path d="M26.5214 6.80969C26.1206 6.63686 25.655 6.82164 25.482 7.22291L25.2327 7.8005C24.4539 5.89612 23.2039 4.19196 21.5939 2.87259C19.3772 1.05555 16.5745 0.0550537 13.702 0.0550537C10.8295 0.0550537 8.02676 1.05555 5.80989 2.87259C3.62371 4.6643 2.10021 7.16502 1.52014 9.91376C1.42991 10.3412 1.70347 10.7608 2.1309 10.851C2.55771 10.9412 2.97793 10.6679 3.06795 10.2405C3.57407 7.84252 4.90394 5.66047 6.81265 4.09597C8.74731 2.51025 11.1941 1.63706 13.702 1.63706C16.2097 1.63706 18.6565 2.51025 20.5912 4.09597C22.0782 5.31461 23.2136 6.90836 23.8823 8.68688L22.8807 8.25615C22.4795 8.08374 22.0141 8.26892 21.8415 8.67019C21.6689 9.07146 21.8543 9.53659 22.2556 9.70921L24.7999 10.8036C25.2329 10.9826 25.6546 10.7997 25.839 10.3902L26.9346 7.84912C27.1077 7.44805 26.9227 6.98272 26.5214 6.80969Z" fill="#16DBCC"/>
<path d="M18.5773 6.67111C18.8043 6.2132 18.8391 5.6941 18.6757 5.20982C18.5124 4.72553 18.1702 4.33394 17.7123 4.10694C16.7668 3.63852 15.6168 4.02661 15.1482 4.9719C15.0458 5.17871 14.9827 5.39789 14.9593 5.62077C14.3483 5.56453 13.7272 5.62139 13.1253 5.79462C11.9273 6.13904 10.9083 6.91398 10.2561 7.97627L8.12018 11.455C7.83488 11.404 7.5399 11.4252 7.25769 11.5203C6.81626 11.6693 6.45927 11.9811 6.25267 12.3983L6.11177 12.6823C5.68496 13.5438 6.03844 14.5921 6.90009 15.0189L11.5238 17.3099C11.0685 18.257 11.2724 19.3214 12.454 19.9159C13.4899 20.3415 14.6431 19.9245 15.0909 19.0775L15.5797 19.3195C15.824 19.4407 16.0873 19.5018 16.3522 19.5018C16.5398 19.5018 16.7283 19.4712 16.9112 19.4094C17.3525 19.2606 17.7094 18.9488 17.9163 18.5314L18.0569 18.2474C18.2638 17.83 18.2957 17.3573 18.1468 16.9158C18.0516 16.6336 17.8897 16.386 17.6763 16.1899L19.1503 12.3834C19.6004 11.2208 19.5996 9.94059 19.1481 8.77881C18.9213 8.19503 18.5903 7.66646 18.1756 7.21431C18.3385 7.06064 18.4749 6.87793 18.5773 6.67111ZM16.8614 5.48708C17.0449 5.48708 17.1936 5.6358 17.1936 5.81914C17.1936 6.00267 17.0449 6.15119 16.8614 6.15119C16.678 6.15119 16.5293 6.00247 16.5293 5.81914C16.5293 5.6358 16.678 5.48708 16.8614 5.48708ZM13.4697 18.5195C13.3659 18.5547 13.2547 18.5471 13.1564 18.4985C13.0582 18.4499 12.9848 18.3658 12.9498 18.262C12.9224 18.1808 12.9214 18.0949 12.9455 18.0146L13.6694 18.3732C13.6197 18.441 13.5509 18.4923 13.4697 18.5195ZM17.675 11.8122L16.0693 15.9584C15.8434 16.4707 16.0595 17.0771 16.566 17.3284H16.5662C16.6488 17.3725 16.6791 17.4632 16.6395 17.5451L16.4986 17.8292C16.4515 17.9116 16.3674 17.9386 16.2821 17.9021L7.60252 13.6015C7.5226 13.5619 7.48964 13.4647 7.52919 13.385L7.67009 13.1009C7.70819 13.0307 7.78215 12.9808 7.88679 13.0278C8.13913 13.1528 8.42504 13.172 8.692 13.0822C8.94393 12.9971 9.15054 12.8243 9.27805 12.5929L11.6041 8.80414C12.0492 8.07906 12.7449 7.55007 13.5626 7.31483C14.3802 7.07959 15.2505 7.15807 16.0127 7.53586C16.0129 7.53586 16.0129 7.53586 16.0131 7.53607C16.0133 7.53607 16.0133 7.53607 16.0135 7.53627C16.7759 7.91406 17.3654 8.55881 17.6736 9.35187C17.9818 10.1449 17.9822 11.0187 17.675 11.8122Z" fill="#16DBCC"/>
</svg>
