<svg width="21" height="25" viewBox="0 0 21 25" fill="none" xmlns="http://www.w3.org/2000/svg">
<path d="M10.3218 12.0426C11.9762 12.0426 13.4088 11.4492 14.5794 10.2785C15.7499 9.10793 16.3433 7.67571 16.3433 6.02109C16.3433 4.36705 15.7499 2.93463 14.5792 1.76372C13.4085 0.593374 11.976 0 10.3218 0C8.66717 0 7.23494 0.593374 6.0644 1.76391C4.89386 2.93444 4.30029 4.36686 4.30029 6.02109C4.30029 7.67571 4.89386 9.10813 6.06459 10.2787C7.23532 11.449 8.66774 12.0426 10.3218 12.0426Z" fill="#1814F3"/>
<path d="M20.8579 19.2237C20.8241 18.7366 20.7558 18.2052 20.6553 17.644C20.5538 17.0787 20.4232 16.5443 20.2668 16.0558C20.1052 15.5509 19.8855 15.0523 19.6139 14.5745C19.332 14.0786 19.0009 13.6468 18.6293 13.2915C18.2408 12.9197 17.7651 12.6209 17.215 12.4028C16.6668 12.186 16.0593 12.0761 15.4095 12.0761C15.1543 12.0761 14.9075 12.1808 14.4309 12.4912C14.1375 12.6825 13.7944 12.9037 13.4114 13.1484C13.0839 13.3571 12.6402 13.5526 12.0923 13.7296C11.5576 13.9026 11.0148 13.9903 10.479 13.9903C9.94324 13.9903 9.4006 13.9026 8.8654 13.7296C8.31799 13.5528 7.87434 13.3573 7.54723 13.1486C7.16786 12.9062 6.82454 12.6849 6.5268 12.491C6.05073 12.1806 5.80373 12.0759 5.54852 12.0759C4.8985 12.0759 4.2912 12.186 3.74322 12.403C3.19352 12.6207 2.71764 12.9195 2.32873 13.2917C1.95737 13.6472 1.62606 14.0788 1.34454 14.5745C1.07312 15.0523 0.853394 15.5507 0.69165 16.056C0.535439 16.5444 0.404785 17.0787 0.303314 17.644C0.202797 18.2044 0.134514 18.736 0.100754 19.2243C0.0675659 19.7026 0.0507812 20.1991 0.0507812 20.7005C0.0507812 22.0055 0.46563 23.062 1.28369 23.8412C2.09164 24.61 3.16071 25.0001 4.46076 25.0001H16.4984C17.7985 25.0001 18.8672 24.6102 19.6753 23.8412C20.4936 23.0626 20.9084 22.0059 20.9084 20.7003C20.9082 20.1966 20.8912 19.6998 20.8579 19.2237Z" fill="#1814F3"/>
</svg>
