<?xml version="1.0" encoding="utf-8"?>
<!-- This file is generated by yarn build:icons -->
<svg xmlns="http://www.w3.org/2000/svg" xmlns:xlink="http://www.w3.org/1999/xlink" width="0" height="0">
<defs>
<symbol viewBox="0 0 21 25" id="apple">
<path d="M20.0476 17.2021C19.2662 16.733 17.641 15.7564 17.641 13.216C17.641 11.0719 19.0759 9.98985 19.8466 9.40856L19.8627 9.39635C20.1721 9.16306 20.2458 8.72867 20.0311 8.40606C18.3091 5.82074 15.3519 5.74607 14.777 5.7568H14.7735C14.3792 5.75729 14.0029 5.80268 13.6461 5.87443C13.7779 5.76901 13.9058 5.65675 14.0287 5.53766C15.2606 4.34579 15.9376 2.58727 15.8854 0.711608C15.8741 0.315782 15.5501 0 15.1538 0C13.8213 0 12.3063 0.796045 11.1999 2.07772C10.0851 3.36916 9.56436 4.91634 9.77179 6.32199C9.78887 6.43864 9.83377 6.54504 9.8982 6.63631C9.70297 6.57091 9.49652 6.49477 9.2925 6.41961C8.51744 6.13408 7.63843 5.81049 6.81554 5.81049C6.79894 5.81049 5.12583 5.82269 3.45517 6.86033C1.99388 7.76863 0.251465 9.65894 0.251465 13.5093C0.251465 15.5119 1.03384 18.3154 2.24475 20.6523C3.0813 22.2668 4.81737 24.9766 7.04688 24.9893H7.0708C8.69657 24.9893 10.0436 24.0292 10.9598 24.0292C12.5245 24.0292 13.0814 25 14.7735 25C16.2905 25 17.7605 23.8477 19.1432 21.5757C19.6508 20.7411 20.0457 19.9158 20.2873 19.3701C20.7485 18.3305 20.7485 18.1919 20.7485 18.0904C20.7485 17.6233 20.3922 17.409 20.0476 17.2021ZM12.3083 3.03434C12.9091 2.33835 13.6661 1.82197 14.3831 1.59404C14.2459 2.73076 13.7657 3.75522 13.0106 4.48538C12.4816 4.99736 11.8466 5.33023 11.2018 5.44493C11.2702 4.64058 11.6548 3.79134 12.3083 3.03434ZM17.8216 20.9295C16.7766 22.6104 15.694 23.5358 14.7735 23.5358C13.507 23.5358 12.915 22.565 10.9598 22.565C9.6405 22.565 8.38176 23.5319 7.05518 23.525C6.02047 23.5192 4.67534 22.1604 3.54497 19.9787C2.43363 17.8346 1.71568 15.2952 1.71568 13.5093C1.71568 10.9811 2.54686 9.17184 4.18483 8.13127C5.46016 7.32156 6.76478 7.27617 6.81993 7.27471C7.963 7.27764 9.54971 8.28941 10.706 8.28941C11.747 8.28941 13.1409 7.22102 14.7789 7.22102H14.8058C15.203 7.21321 17.0787 7.25762 18.3965 8.68767C17.4653 9.472 16.1768 10.8825 16.1768 13.216C16.1768 16.3855 18.1813 17.777 19.1281 18.3573C18.8924 18.9284 18.4429 19.9304 17.8216 20.9295Z"></path>
</symbol>
<symbol viewBox="0 0 30 30" id="arrow-down-circle">
<circle cx="15" cy="15" r="14" transform="rotate(180 15 15)" stroke="#718EBF" stroke-width="2"></circle>
<path d="M14.4697 20.0303C14.7626 20.3232 15.2374 20.3232 15.5303 20.0303L20.3033 15.2574C20.5962 14.9645 20.5962 14.4896 20.3033 14.1967C20.0104 13.9038 19.5355 13.9038 19.2426 14.1967L15 18.4393L10.7574 14.1967C10.4645 13.9038 9.98959 13.9038 9.6967 14.1967C9.40381 14.4896 9.40381 14.9645 9.6967 15.2574L14.4697 20.0303ZM14.25 9L14.25 19.5L15.75 19.5L15.75 9L14.25 9Z"></path>
</symbol>
<symbol viewBox="0 0 30 30" id="arrow-up-circle">
<circle cx="15" cy="15" r="14" stroke="#718EBF" stroke-width="2"></circle>
<path d="M15.5303 9.96967C15.2374 9.67678 14.7626 9.67678 14.4697 9.96967L9.6967 14.7426C9.40381 15.0355 9.40381 15.5104 9.6967 15.8033C9.98959 16.0962 10.4645 16.0962 10.7574 15.8033L15 11.5607L19.2426 15.8033C19.5355 16.0962 20.0104 16.0962 20.3033 15.8033C20.5962 15.5104 20.5962 15.0355 20.3033 14.7426L15.5303 9.96967ZM15.75 21L15.75 10.5L14.25 10.5L14.25 21L15.75 21Z"></path>
</symbol>
<symbol viewBox="0 0 25 23" id="blocked-credit">
<path d="M23.6295 10.5458V3.13134C23.6295 1.60904 22.3909 0.370483 20.8686 0.370483H2.76077C1.23847 0.370483 0 1.60904 0 3.13134V14.3864C0 15.9087 1.23847 17.1473 2.76077 17.1473H9.92062C10.8763 20.3154 13.8212 22.6295 17.2969 22.6295C21.5444 22.6295 24.9999 19.1739 24.9999 14.9264C25 13.3001 24.493 11.7904 23.6295 10.5458ZM12.9164 8.59381H1.70067V6.18286H21.9288V8.77554C20.6387 7.80163 19.0342 7.22335 17.2969 7.22335C15.6708 7.22327 14.1609 7.73025 12.9164 8.59381ZM2.76077 2.07116H20.8686C21.4532 2.07116 21.9288 2.54675 21.9288 3.13134V4.48219H1.70067V3.13134C1.70067 2.54675 2.17626 2.07116 2.76077 2.07116ZM2.76077 15.4466C2.17626 15.4466 1.70067 14.971 1.70067 14.3864V10.2945H11.146C10.1721 11.5845 9.59385 13.1891 9.59385 14.9264C9.59385 15.1013 9.60025 15.2746 9.61178 15.4467H2.76077V15.4466ZM17.297 20.9287C13.9872 20.9287 11.2945 18.2361 11.2945 14.9263C11.2945 11.6166 13.9872 8.92394 17.297 8.92394C20.6066 8.92394 23.2993 11.6166 23.2993 14.9263C23.2993 18.2361 20.6066 20.9287 17.297 20.9287Z"></path>
<path d="M13.1853 12.7054C12.7157 12.7054 12.335 13.0862 12.335 13.5558V16.2969C12.335 16.7665 12.7157 17.1472 13.1853 17.1472H21.4086C21.8782 17.1472 22.259 16.7665 22.259 16.2969V13.5558C22.259 13.0862 21.8782 12.7054 21.4086 12.7054H13.1853ZM20.5583 15.4466H14.0356V14.4062H20.5583V15.4466Z"></path>
</symbol>
<symbol viewBox="0 0 30 26" id="briefcase">
<path d="M27.5 4.24994H21.25V2.9999C21.25 1.62113 20.1288 0.499878 18.75 0.499878H11.25C9.87123 0.499878 8.74998 1.62107 8.74998 2.9999V4.24988H2.50002C1.12119 4.24994 0 5.37113 0 6.74991V10.4999C0 11.8787 1.12119 12.9999 2.50002 12.9999H12.5V12.3749C12.5 12.0294 12.7796 11.7499 13.1251 11.7499H16.8751C17.2205 11.7499 17.5001 12.0294 17.5001 12.3749V12.9999H27.5001C28.8788 12.9999 30 11.8787 30 10.4999V6.74991C30 5.37113 28.8788 4.24994 27.5 4.24994ZM18.75 4.24994H11.25V2.9999H18.75V4.24994Z"></path>
<path d="M29.6533 13.6743C29.4403 13.5687 29.1858 13.5931 28.9978 13.7359C28.5534 14.0723 28.0358 14.2498 27.4999 14.2498H17.5V16.1249C17.5 16.4703 17.2205 16.7499 16.875 16.7499H13.125C12.7795 16.7499 12.5 16.4703 12.5 16.1249V14.2498H2.50002C1.96412 14.2498 1.44656 14.0723 1.00219 13.7359C0.813574 13.5919 0.559687 13.5675 0.346641 13.6743C0.134297 13.7799 0 13.9965 0 14.234V22.9999C0 24.3787 1.12119 25.4999 2.50002 25.4999H27.5C28.8788 25.4999 30.0001 24.3787 30.0001 22.9999V14.234C30 13.9965 29.8657 13.7799 29.6533 13.6743Z"></path>
</symbol>
<symbol viewBox="0 0 22 18" id="business-finance-money">
<path d="M15.6452 17.6094H2.67984C1.9859 17.6087 1.32059 17.3327 0.829902 16.842C0.339211 16.3513 0.0632238 15.686 0.0625 14.992V7.25431C0.0632238 6.56037 0.339211 5.89506 0.829902 5.40437C1.32059 4.91367 1.9859 4.63769 2.67984 4.63696H15.6452C16.3391 4.63769 17.0044 4.91367 17.4951 5.40437C17.9858 5.89506 18.2618 6.56037 18.2625 7.25431V14.992C18.2618 15.686 17.9858 16.3513 17.4951 16.842C17.0044 17.3327 16.3391 17.6087 15.6452 17.6094ZM2.67984 6.27759C2.42089 6.27788 2.17263 6.38087 1.98952 6.56398C1.80641 6.74709 1.70341 6.99535 1.70312 7.25431V14.992C1.70341 15.251 1.80641 15.4993 1.98952 15.6824C2.17263 15.8655 2.42089 15.9685 2.67984 15.9688H15.6452C15.9041 15.9685 16.1524 15.8655 16.3355 15.6824C16.5186 15.4993 16.6216 15.251 16.6219 14.992V7.25431C16.6216 6.99535 16.5186 6.74709 16.3355 6.56398C16.1524 6.38087 15.9041 6.27788 15.6452 6.27759H2.67984Z"></path>
<path d="M19.3212 13.1917H17.4422C17.2246 13.1917 17.016 13.1053 16.8621 12.9515C16.7083 12.7976 16.6219 12.589 16.6219 12.3714C16.6219 12.1538 16.7083 11.9452 16.8621 11.7914C17.016 11.6375 17.2246 11.5511 17.4422 11.5511H19.3212C19.58 11.5505 19.828 11.4474 20.0109 11.2643C20.1937 11.0812 20.2966 10.8331 20.2969 10.5744V2.83664C20.2967 2.57778 20.1939 2.32954 20.0111 2.14635C19.8282 1.96315 19.5801 1.85995 19.3212 1.85938H6.35593C6.09698 1.85966 5.84871 1.96266 5.66561 2.14577C5.4825 2.32888 5.3795 2.57714 5.37921 2.83609V5.45672C5.37921 5.67428 5.29279 5.88293 5.13895 6.03677C4.98511 6.19061 4.77646 6.27703 4.5589 6.27703C4.34134 6.27703 4.13269 6.19061 3.97885 6.03677C3.82501 5.88293 3.73859 5.67428 3.73859 5.45672V2.83664C3.73917 2.1426 4.01509 1.47715 4.5058 0.986345C4.9965 0.495537 5.6619 0.219474 6.35593 0.21875H19.3212C20.0151 0.219764 20.6802 0.495954 21.1707 0.986732C21.6611 1.47751 21.9369 2.14279 21.9375 2.83664V10.5744C21.9368 11.2681 21.6609 11.9333 21.1705 12.4239C20.68 12.9146 20.015 13.1907 19.3212 13.1917Z"></path>
<path d="M17.4422 11.7464H0.882812C0.665252 11.7464 0.456602 11.6599 0.302764 11.5061C0.148926 11.3523 0.0625 11.1436 0.0625 10.9261V8.1709C0.0625 7.95334 0.148926 7.74469 0.302764 7.59085C0.456602 7.43701 0.665252 7.35059 0.882812 7.35059H17.4422C17.6597 7.35059 17.8684 7.43701 18.0222 7.59085C18.1761 7.74469 18.2625 7.95334 18.2625 8.1709V10.9261C18.2625 11.1436 18.1761 11.3523 18.0222 11.5061C17.8684 11.6599 17.6597 11.7464 17.4422 11.7464ZM1.70312 10.1057H16.6219V8.99121H1.70312V10.1057Z"></path>
</symbol>
<symbol viewBox="0 0 26 20" id="credit-card">
<path d="M22.9608 4.16342V3.80775C22.9608 2.17274 21.6306 0.842529 19.9956 0.842529H2.96522C1.33016 0.84258 0 2.17274 0 3.80775V4.16342H22.9608Z"></path>
<path d="M13.5651 13.7017C13.5651 12.1636 14.0598 10.7017 14.9731 9.49683H0V13.6331C0 15.2681 1.33016 16.5983 2.96522 16.5983H14.1911C13.7813 15.7007 13.5651 14.7179 13.5651 13.7017ZM11.4804 12.803H8.92125V11.2796H11.4804V12.803ZM3.41545 11.2796H7.39781V12.803H3.41545V11.2796Z"></path>
<path d="M16.5547 7.97342C17.7165 7.16056 19.0967 6.72262 20.5443 6.72262C21.3822 6.72262 22.1973 6.86974 22.9608 7.15091V5.68689H0V7.97342H16.5547Z"></path>
<path d="M26.0001 13.7018C26.0001 10.6887 23.5575 8.24609 20.5444 8.24609C17.5313 8.24609 15.0886 10.6887 15.0886 13.7018C15.0886 16.7149 17.5312 19.1575 20.5444 19.1575C23.5575 19.1575 26.0001 16.7149 26.0001 13.7018ZM21.2798 16.6164V17.2364H20.518V17.2364V17.2364H19.7563V16.6209C19.2958 16.465 18.919 16.1906 18.551 15.9215L19.4504 14.6919C19.9447 15.0534 20.1977 15.2272 20.5444 15.2272C20.7404 15.2272 20.8991 15.1339 20.9586 14.9838C21.0306 14.802 20.9288 14.6345 20.6862 14.5357C20.6862 14.5357 19.5974 14.1726 19.094 13.6593C18.6716 13.2288 18.5373 12.622 18.6717 12.0447C18.8071 11.4635 19.1996 11.0091 19.7563 10.7822V10.1671H21.2798V10.7567C21.6667 10.8641 21.9942 11.0229 22.1825 11.1251L21.4556 12.464C20.9737 12.2024 20.5304 12.1239 20.3578 12.1829C20.1904 12.2401 20.165 12.3493 20.1554 12.3904C20.1418 12.4486 20.1346 12.538 20.2277 12.6418C20.3173 12.7417 21.2606 13.1248 21.2606 13.1248C22.2783 13.5391 22.7573 14.5795 22.3748 15.5449C22.1761 16.0467 21.7762 16.4267 21.2798 16.6164Z"></path>
</symbol>
<symbol viewBox="0 0 25 25" id="econometrics">
<path d="M4.81144 16.6678C5.06284 16.8174 5.27869 17.0121 5.45093 17.2371H8.7061V14.0806L7.16259 13.1236C6.81882 12.9105 6.71293 12.459 6.92604 12.1153C7.1392 11.7716 7.59048 11.6657 7.93439 11.8787L9.43845 12.8112L10.7495 11.9984C8.13457 8.41283 8.7351 3.33221 12.2158 0.464604C6.48233 -1.45611 0.467906 2.8135 0.44076 8.94559C0.426601 12.1976 2.15793 15.0882 4.81144 16.6678Z"></path>
<path d="M5.90894 18.7018H12.8419V20.3618H5.90894V18.7018Z"></path>
<path d="M10.1707 14.0806V17.237H13.2899C13.4556 17.0185 13.6622 16.8312 13.9027 16.6896C14.5683 16.2978 15.1794 15.8199 15.721 15.273C14.1911 14.9285 12.8172 14.1677 11.7247 13.1163C11.6831 13.1434 11.3828 13.3291 10.1707 14.0806Z"></path>
<path d="M17.5777 0.00231934C13.7374 0.00231934 10.5959 3.1757 10.5959 7.03291C10.5959 10.6611 13.3811 13.6654 16.9522 13.9861C21.085 14.3553 24.5595 11.0793 24.5595 7.03291C24.5595 3.18317 21.4275 0.00231934 17.5777 0.00231934ZM18.311 10.2072V10.3603C18.311 10.7647 17.9831 11.0926 17.5787 11.0926C17.1742 11.0926 16.8463 10.7647 16.8463 10.3603V10.29C16.5089 10.2308 16.2006 10.1046 15.8112 9.84978C15.4727 9.62836 15.3778 9.1745 15.5992 8.83601C15.8207 8.49747 16.2746 8.40265 16.613 8.62402C16.97 8.85759 17.0857 8.8758 17.5737 8.87243C18.0449 8.86931 18.2326 8.49947 18.2693 8.28147C18.3022 8.08574 18.2652 7.82551 17.9022 7.69725C17.2942 7.48228 16.6707 7.23562 16.229 6.88917C15.2232 6.10028 15.5268 4.29845 16.8464 3.81895V3.71291C16.8464 3.30845 17.1743 2.98055 17.5787 2.98055C17.9832 2.98055 18.3111 3.30845 18.3111 3.71291V3.75353C18.6719 3.85537 18.9625 4.03959 19.1622 4.24259C19.4458 4.53095 19.4419 4.99462 19.1535 5.27824C18.8653 5.56171 18.402 5.55795 18.1184 5.27008C18.0775 5.2302 17.8519 5.04208 17.3635 5.18918C17.1685 5.24792 17.1161 5.45015 17.1047 5.51074C17.0808 5.63719 17.1148 5.72243 17.1329 5.73669C17.4092 5.95337 17.9236 6.15125 18.3904 6.31627C20.3206 6.99853 20.0855 9.56572 18.311 10.2072Z"></path>
<path d="M7.08081 22.7052C7.08081 23.9705 8.11021 24.9999 9.37552 24.9999C10.6408 24.9999 11.6702 23.9705 11.6702 22.7052V21.8264H7.08081V22.7052Z"></path>
</symbol>
<symbol viewBox="0 0 25 25" id="google">
<path d="M24.5021 12.7851C24.5032 11.9333 24.4311 11.083 24.2868 10.2435H12.499V15.0576H19.2505C19.1124 15.8265 18.82 16.5594 18.3909 17.2122C17.9619 17.8651 17.4051 18.4243 16.7541 18.8561V21.981H20.7835C23.1428 19.8057 24.5021 16.5888 24.5021 12.7851Z"></path>
<path d="M12.4991 25C15.8722 25 18.7124 23.8924 20.7835 21.9827L16.7542 18.8578C15.6327 19.6182 14.1883 20.0523 12.4991 20.0523C9.23878 20.0523 6.47151 17.8544 5.48196 14.8927H1.33105V18.1131C2.37141 20.1833 3.96669 21.9236 5.93879 23.1397C7.91088 24.3558 10.1822 24.9999 12.4991 25Z"></path>
<path d="M5.48189 14.8926C4.95875 13.3407 4.95875 11.66 5.48189 10.1081V6.8877H1.33098C0.455797 8.62922 0 10.5513 0 12.5004C0 14.4494 0.455797 16.3715 1.33098 18.113L5.48189 14.8926Z"></path>
<path d="M12.4991 4.94857C14.2816 4.91945 16.0041 5.59296 17.2941 6.82351L20.8617 3.25592C18.5994 1.13112 15.6025 -0.0354271 12.4991 0.00082009C10.1822 0.000925686 7.91088 0.644991 5.93879 1.86111C3.96669 3.07723 2.37141 4.81754 1.33105 6.88775L5.48196 10.1081C6.47151 7.14642 9.23878 4.94857 12.4991 4.94857Z"></path>
</symbol>
<symbol viewBox="0 0 25 25" id="home">
<path d="M24.3255 10.8738C24.3249 10.8732 24.3243 10.8727 24.3238 10.8721L14.1257 0.674438C13.6911 0.239563 13.1131 0 12.4984 0C11.8837 0 11.3057 0.239372 10.8709 0.674248L0.678172 10.8667C0.674739 10.8702 0.671306 10.8738 0.667872 10.8772C-0.224767 11.775 -0.223241 13.2317 0.672259 14.1272C1.08139 14.5365 1.62174 14.7736 2.19947 14.7984C2.22293 14.8006 2.24658 14.8018 2.27043 14.8018H2.67688V22.3066C2.67688 23.7917 3.88519 25 5.37063 25H9.36042C9.76478 25 10.0928 24.6721 10.0928 24.2676V18.3838C10.0928 17.7061 10.6441 17.1549 11.3217 17.1549H13.675C14.3527 17.1549 14.9039 17.7061 14.9039 18.3838V24.2676C14.9039 24.6721 15.2318 25 15.6364 25H19.6262C21.1116 25 22.3199 23.7917 22.3199 22.3066V14.8018H22.6968C23.3113 14.8018 23.8893 14.5624 24.3243 14.1275C25.2208 13.2305 25.2212 11.7714 24.3255 10.8738Z"></path>
</symbol>
<symbol viewBox="0 0 28 30" id="investment-group">
<path d="M13.7651 30H11.4214C10.2582 30 9.31201 29.0538 9.31201 27.8906V13.3594C9.31201 12.1962 10.2582 11.25 11.4214 11.25H13.7651C14.9283 11.25 15.8745 12.1962 15.8745 13.3594V27.8906C15.8745 29.0538 14.9282 30 13.7651 30Z"></path>
<path d="M4.85889 30H2.51514C1.35199 30 0.405762 29.0538 0.405762 27.8906V18.0469C0.405762 16.8837 1.35199 15.9375 2.51514 15.9375H4.85889C6.02204 15.9375 6.96827 16.8837 6.96827 18.0469V27.8906C6.96827 29.0538 6.02198 30 4.85889 30Z"></path>
<path d="M22.6714 30H20.3276C19.1645 30 18.2182 29.0538 18.2182 27.8906V8.4375H16.9304C16.3282 8.4375 15.7979 8.09766 15.5463 7.55062C15.2946 7.00359 15.3818 6.3798 15.7737 5.9226C15.7781 5.91738 15.7827 5.91217 15.7872 5.90707L20.8013 0.311836C20.9791 0.113379 21.233 0 21.4995 0C21.766 0 22.0198 0.113379 22.1977 0.311836L27.2118 5.90707C27.2164 5.91217 27.2209 5.91738 27.2254 5.9226C27.6172 6.37975 27.7044 7.00359 27.4528 7.55062C27.2012 8.09766 26.6708 8.4375 26.0687 8.4375H24.7808V27.8906C24.7808 29.0538 23.8345 30 22.6714 30Z"></path>
</symbol>
<symbol viewBox="0 0 21 25" id="key">
<path d="M17.5312 9.17969H15.7716V5.16455C15.7716 2.3168 13.406 0 10.4982 0C7.59043 0 5.22476 2.3168 5.22476 5.16455V9.17969H3.46875C1.85332 9.17969 0.539062 10.4939 0.539062 12.1094V22.0703C0.539062 23.6857 1.85332 25 3.46875 25H17.5312C19.1467 25 20.4609 23.6857 20.4609 22.0703V12.1094C20.4609 10.4939 19.1467 9.17969 17.5312 9.17969ZM7.17788 5.16455C7.17788 3.39375 8.66738 1.95312 10.4982 1.95312C12.329 1.95312 13.8185 3.39375 13.8185 5.16455V9.17969H7.17788V5.16455ZM18.5078 22.0703C18.5078 22.6088 18.0697 23.0469 17.5312 23.0469H3.46875C2.93027 23.0469 2.49219 22.6088 2.49219 22.0703V12.1094C2.49219 11.5709 2.93027 11.1328 3.46875 11.1328H17.5312C18.0697 11.1328 18.5078 11.5709 18.5078 12.1094V22.0703Z"></path>
</symbol>
<symbol viewBox="0 0 28 30" id="life-insurance-filled">
<path d="M26.3166 4.09262C22.4204 4.09262 19.4384 3.11615 17.6229 2.29698C15.6493 1.40649 14.5851 0.502868 14.5762 0.495302L14.0013 0L13.4255 0.493836C13.415 0.502868 12.3507 1.40655 10.3771 2.29698C8.56168 3.11615 5.57967 4.09262 1.68347 4.09262H0.803711V16.169L14 29.9999L27.1964 16.1812V4.09262H26.3166ZM23.6773 12.3075C23.6773 13.6718 23.1472 14.9545 22.1844 15.9206L14 24.4225L5.81568 15.9205C4.85281 14.9545 4.32273 13.6717 4.32273 12.3075V11.8501C4.32273 9.02793 6.61877 6.73183 9.44103 6.73183C10.7076 6.73183 11.9236 7.19845 12.865 8.04571L13.9681 9.03854L14.7757 8.23093C15.7425 7.2642 17.0278 6.73177 18.3949 6.73177H18.559C21.3812 6.73177 23.6773 9.02781 23.6773 11.8501V12.3075H23.6773Z"></path>
<path d="M18.5588 8.49139H18.3948C17.4977 8.49139 16.6542 8.84077 16.0197 9.47513L14.0317 11.4631L11.6878 9.35355C11.0699 8.79755 10.272 8.49133 9.44082 8.49133C7.58876 8.49133 6.08203 9.99806 6.08203 11.8501V12.3075C6.08203 13.2047 6.43141 14.0482 7.06577 14.6825L7.0775 14.6944L13.9998 21.8854L20.9338 14.6825C21.5682 14.0481 21.9176 13.2046 21.9176 12.3074V11.8501C21.9176 9.99818 20.4108 8.49139 18.5588 8.49139ZM16.6391 16.4092H14.8796V18.1687H13.1201V16.4092H11.3606V14.6497H13.1201V12.8902H14.8796V14.6497H16.6391V16.4092Z"></path>
</symbol>
<symbol viewBox="0 0 26 26" id="money-circle">
<path d="M13.0001 10.379C13.4962 10.379 13.9014 10.7831 13.9014 11.2792C13.9014 11.7319 14.2693 12.0988 14.722 12.0988C15.1736 12.0988 15.5416 11.7319 15.5416 11.2792C15.5416 10.1671 14.8171 9.22869 13.8197 8.88556V8.42048C13.8197 7.96884 13.4528 7.59987 13.0001 7.59987C12.5464 7.59987 12.1795 7.96884 12.1795 8.42048V8.88556C11.1822 9.22869 10.4598 10.1671 10.4598 11.2792C10.4598 12.6817 11.5987 13.8206 13.0001 13.8206C13.4962 13.8206 13.9014 14.2257 13.9014 14.7218C13.9014 15.2189 13.4962 15.6231 13.0001 15.6231C12.5041 15.6231 12.1 15.2189 12.1 14.7218C12.1 14.2691 11.732 13.9012 11.2793 13.9012C10.8256 13.9012 10.4598 14.2691 10.4598 14.7218C10.4598 15.8339 11.1822 16.7713 12.1795 17.1144V17.5795C12.1795 18.0332 12.5464 18.4011 13.0001 18.4011C13.4528 18.4011 13.8197 18.0332 13.8197 17.5795V17.1144C14.8171 16.7713 15.5416 15.8339 15.5416 14.7218C15.5416 13.3204 14.4016 12.1804 13.0001 12.1804C12.5041 12.1804 12.1 11.7763 12.1 11.2792C12.1 10.7831 12.5041 10.379 13.0001 10.379ZM19.872 17.5547C20.274 17.7666 20.7691 17.6126 20.9799 17.2136C21.662 15.9248 22.0217 14.4676 22.0217 13C22.0217 8.02671 17.9734 3.97947 13.0001 3.97947C8.02583 3.97947 3.97859 8.02671 3.97859 13C3.97859 17.9743 8.02583 22.0215 13.0001 22.0215C14.446 22.0215 15.8826 21.6722 17.1549 21.0097C17.5569 20.802 17.713 20.3049 17.5042 19.9039C17.2954 19.5039 16.8004 19.3447 16.3973 19.5545C15.3442 20.1044 14.2001 20.3824 13.0001 20.3824C8.93016 20.3824 5.61774 17.071 5.61774 13C5.61774 8.93104 8.93016 5.61862 13.0001 5.61862C17.0701 5.61862 20.3825 8.93104 20.3825 13C20.3825 14.202 20.087 15.3936 19.5309 16.4457C19.318 16.8467 19.471 17.3428 19.872 17.5547V17.5547ZM13.0001 0.697021C10.6241 0.697021 8.31728 1.37707 6.32983 2.66173C5.94847 2.90771 5.83995 3.41517 6.08592 3.7955C6.33293 4.17583 6.83832 4.28332 7.22072 4.03941C8.94049 2.92735 10.9414 2.33824 13.0001 2.33824C18.8798 2.33824 23.6619 7.12135 23.6619 13C23.6619 18.8797 18.8798 23.6628 13.0001 23.6628C7.12047 23.6628 2.33736 18.8797 2.33736 13C2.33736 10.9609 2.9151 8.97755 4.00959 7.26708C4.2535 6.88468 4.14188 6.37722 3.75948 6.13331C3.37811 5.8894 2.87066 6.00102 2.62778 6.38239C1.36482 8.35744 0.697174 10.6477 0.697174 13C0.697174 19.785 6.21511 25.303 13.0001 25.303C19.7841 25.303 25.3031 19.785 25.3031 13C25.3031 6.21703 19.7841 0.697021 13.0001 0.697021V0.697021Z"></path>
</symbol>
<symbol viewBox="0 0 28 30" id="money-list-plus">
<path d="M24.1323 0C22.4164 0 21.0254 1.39102 21.0254 3.10693V12.3773H26.3604C26.8457 12.3773 27.2393 11.9838 27.2393 11.4984V3.10693C27.2393 1.39102 25.8482 0 24.1323 0V0Z"></path>
<path d="M9.62662 22.0898C9.62662 16.7805 13.9456 12.4076 19.3261 12.4223V3.48551C19.3261 2.14857 19.8293 0.927129 20.656 0H5.1541C2.73184 0 0.760742 1.97109 0.760742 4.39336V29.1053C0.760742 29.8959 1.72795 30.2844 2.2748 29.7129L3.39922 28.5387L4.58691 29.727C4.92969 30.0697 5.48633 30.0697 5.82969 29.727L6.95527 28.602L8.09199 29.7293C8.43477 30.0691 8.9873 30.0691 9.33008 29.7293L10.485 28.5844L11.6404 29.7293C11.9826 30.0691 12.5346 30.0691 12.8773 29.7299L13.1012 29.5084C10.922 27.6864 9.62662 24.9923 9.62662 22.0898ZM7.87086 7.08984H9.60547V5.35523C9.60547 4.86984 9.99898 4.47633 10.4844 4.47633C10.9698 4.47633 11.3633 4.86984 11.3633 5.35523V7.08984H13.0979C13.5833 7.08984 13.9768 7.48336 13.9768 7.96875C13.9768 8.45414 13.5833 8.84766 13.0979 8.84766H11.3633V10.5823C11.3633 11.0677 10.9698 11.4612 10.4844 11.4612C9.99898 11.4612 9.60547 11.0677 9.60547 10.5823V8.84766H7.87086C7.38547 8.84766 6.99195 8.45414 6.99195 7.96875C6.99195 7.48336 7.38547 7.08984 7.87086 7.08984ZM5.21088 13.2451H11.1289C11.6143 13.2451 12.0078 13.6386 12.0078 14.124C12.0078 14.6094 11.6143 15.0029 11.1289 15.0029H5.21088C4.72549 15.0029 4.33197 14.6094 4.33197 14.124C4.33197 13.6386 4.72549 13.2451 5.21088 13.2451ZM8.1435 22.0283H5.20502C4.71963 22.0283 4.32611 21.6348 4.32611 21.1494C4.32611 20.664 4.71963 20.2705 5.20502 20.2705H8.1435C8.62889 20.2705 9.0224 20.664 9.0224 21.1494C9.0224 21.6348 8.62889 22.0283 8.1435 22.0283ZM8.72949 18.5186H5.20789C4.7225 18.5186 4.32898 18.125 4.32898 17.6396C4.32898 17.1543 4.7225 16.7607 5.20789 16.7607H8.72949C9.21488 16.7607 9.6084 17.1543 9.6084 17.6396C9.6084 18.125 9.21488 18.5186 8.72949 18.5186Z"></path>
<path d="M19.2947 14.1797C14.933 14.1797 11.3845 17.7282 11.3845 22.0898C11.3845 26.4515 14.933 30 19.2947 30C23.6563 30 27.2048 26.4515 27.2048 22.0898C27.2048 17.7282 23.6563 14.1797 19.2947 14.1797ZM20.1763 25.4747V25.5583C20.1763 26.0437 19.7828 26.4372 19.2974 26.4372C18.812 26.4372 18.4185 26.0437 18.4185 25.5583V25.5434C18.0248 25.4496 17.6596 25.2945 17.3699 25.105C16.9637 24.8392 16.8499 24.2946 17.1156 23.8883C17.3814 23.482 17.926 23.3682 18.3323 23.634C18.692 23.8693 19.285 23.9587 19.5764 23.8216C19.7652 23.7327 19.9114 23.543 19.9317 23.3603C19.9752 22.9712 19.3655 22.7541 19.0015 22.6103C18.4506 22.3927 17.7649 22.1219 17.3669 21.4033C16.7995 20.3791 17.2965 19.0287 18.4185 18.5669V18.5227C18.4185 18.0373 18.812 17.6437 19.2974 17.6437C19.778 17.6437 20.168 18.0296 20.1756 18.5084C20.492 18.6073 20.7834 18.7655 21.0167 18.9807C21.3736 19.3098 21.396 19.8658 21.0669 20.2226C20.7378 20.5795 20.1817 20.6019 19.825 20.2728C19.6804 20.1394 19.2348 20.0856 19.0411 20.2156C18.9109 20.3031 18.8599 20.4709 18.9045 20.5514C19.0901 20.8865 20.0622 21.0013 20.7978 21.5746C22.3007 22.7457 21.7778 24.8604 20.1763 25.4747Z"></path>
</symbol>
<symbol viewBox="0 0 25 25" id="money-loan">
<path d="M14.4923 15.3372C18.6873 15.3372 22.1002 11.8971 22.1002 7.66863C22.1002 3.44019 18.6873 0 14.4923 0C10.2974 0 6.88452 3.44014 6.88452 7.66858C6.88452 11.897 10.2974 15.3372 14.4923 15.3372ZM12.0477 10.0616C12.269 9.72331 12.7227 9.62835 13.061 9.84975C13.5539 10.1722 13.7399 10.2019 14.3903 10.1973C15.0252 10.1931 15.3936 9.71994 15.4672 9.28202C15.503 9.06901 15.5167 8.54886 14.872 8.32097C14.1159 8.05365 13.3421 7.74812 12.8037 7.32586C12.2654 6.9036 12.0188 6.17464 12.1604 5.42358C12.3139 4.60936 12.8818 3.96121 13.6427 3.73205C13.6496 3.73 13.6563 3.72835 13.6632 3.7263V3.44882C13.6632 3.04457 13.9909 2.71684 14.3952 2.71684C14.7994 2.71684 15.1272 3.04457 15.1272 3.44882V3.68018C15.6243 3.79886 15.9715 4.02631 16.1125 4.13167C16.4363 4.37376 16.5026 4.83242 16.2605 5.15625C16.0185 5.48009 15.5598 5.54635 15.236 5.30421C15.086 5.19207 14.6714 4.95101 14.0649 5.13376C13.7106 5.24053 13.6187 5.59013 13.599 5.6947C13.5603 5.9002 13.6037 6.09281 13.7072 6.17391C14.0803 6.46661 14.7521 6.72578 15.3599 6.94064C16.4808 7.33684 17.1041 8.37529 16.9109 9.5247C16.8161 10.0887 16.5323 10.6119 16.1119 10.9981C15.8256 11.2613 15.4923 11.4488 15.1272 11.556V11.8883C15.1272 12.2926 14.7994 12.6203 14.3952 12.6203C13.9909 12.6203 13.6632 12.2926 13.6632 11.8883V11.629C13.1899 11.5716 12.7926 11.4236 12.2595 11.0748C11.9213 10.8535 11.8264 10.3999 12.0477 10.0616V10.0616Z"></path>
<path d="M2.77449 17.7968H1.10546C0.701209 17.7968 0.373474 18.1245 0.373474 18.5287V24.267C0.373474 24.6713 0.701209 24.999 1.10546 24.999H2.77453V17.7968H2.77449Z"></path>
<path d="M24.4119 17.7457C23.0399 16.3737 20.8075 16.3736 19.4356 17.7457L17.2429 19.9384L16.3442 20.8371C15.981 21.2003 15.4883 21.4044 14.9746 21.4044H10.6045C10.2098 21.4044 9.87015 21.101 9.85155 20.7068C9.83174 20.2859 10.1671 19.9384 10.5837 19.9384H15.0257C15.9188 19.9384 16.6935 19.3025 16.847 18.4227C16.8823 18.2207 16.9007 18.0129 16.9007 17.801C16.9007 17.396 16.5726 17.0674 16.1677 17.0674H13.7337C12.9383 17.0674 12.1744 16.7065 11.3657 16.3244C10.5174 15.9238 9.6403 15.5094 8.61469 15.4412C7.71767 15.3814 6.81859 15.4796 5.94231 15.7327C5.00405 16.0036 4.3296 16.8372 4.24781 17.7996C4.24469 17.7993 4.24151 17.7993 4.23834 17.7991V24.9965L16.8493 25C17.7164 25 18.5316 24.6623 19.1449 24.0491L24.4117 18.7823C24.6981 18.4961 24.6981 18.0319 24.4119 17.7457Z"></path>
</symbol>
<symbol viewBox="0 0 30 30" id="money-save">
<path d="M9.79125 0.963379C6.45074 0.963379 3.73315 3.68437 3.73315 7.02885C3.73315 10.3734 6.4508 13.0944 9.79125 13.0944C13.1317 13.0944 15.8493 10.3734 15.8493 7.02885C15.8493 3.68425 13.1316 0.963379 9.79125 0.963379ZM9.22869 6.10207H10.3538C11.623 6.10207 12.6554 7.13532 12.6554 8.40534C12.6554 9.56785 11.7901 10.5314 10.6702 10.6862V11.0163C10.6702 11.5017 10.2766 11.8953 9.79125 11.8953C9.30586 11.8953 8.91234 11.5017 8.91234 11.0163V10.7085H8.6881C7.71708 10.7085 6.927 9.91806 6.927 8.94646C6.927 8.46106 7.32051 8.06755 7.80591 8.06755C8.2913 8.06755 8.68482 8.46106 8.68482 8.94646L10.3538 8.95068C10.6536 8.95068 10.8976 8.70599 10.8976 8.40528C10.8976 8.10458 10.6536 7.85989 10.3538 7.85989H9.22863C7.95948 7.85989 6.927 6.8267 6.927 5.55668C6.927 4.39411 7.79237 3.43054 8.91234 3.27573V3.04141C8.91234 2.55602 9.30586 2.1625 9.79125 2.1625C10.2766 2.1625 10.6702 2.55602 10.6702 3.04141V3.25341H10.8943C11.8654 3.25341 12.6554 4.0439 12.6554 5.0155C12.6554 5.5009 12.2619 5.89441 11.7765 5.89441C11.2911 5.89441 10.8976 5.5009 10.8976 5.0155C10.8976 5.0141 10.8975 5.01351 10.8975 5.01351L9.22869 5.01123C8.9288 5.01123 8.68488 5.25592 8.68488 5.55668C8.68488 5.85738 8.9288 6.10207 9.22869 6.10207Z"></path>
<path d="M27.9818 14.3653H26.1975C25.7913 13.2291 25.1368 12.2118 24.2991 11.3801L27.0509 10.1654C27.444 9.99181 27.6593 9.5581 27.5475 9.14325C27.2156 7.91178 26.0955 7.00586 24.7648 7.00586H22.4951C21.19 7.00586 20.088 7.87756 19.733 9.07294H17.3359C16.4356 12.3986 13.3946 14.8522 9.79126 14.8522C7.5917 14.8522 5.60179 13.9377 4.18024 12.469C3.77987 13.0403 3.45192 13.6664 3.21022 14.3342C2.49227 14.1771 1.90193 13.6092 1.73688 12.8697C1.63117 12.3959 1.16107 12.0972 0.687633 12.2033C0.213901 12.3091 -0.0844597 12.7788 0.0213024 13.2526C0.201069 14.0581 0.653473 14.7894 1.29514 15.3118C1.7343 15.6693 2.25069 15.9182 2.79784 16.043C2.75524 16.378 2.73321 16.7195 2.73321 17.066V17.9182C2.73321 21.1482 4.64021 23.9303 7.38457 25.191V27.1279C7.38457 28.182 8.23917 29.0366 9.29333 29.0366C10.3475 29.0366 11.2021 28.182 11.2021 27.1279V25.9113H18.3524V27.1279C18.3524 28.182 19.207 29.0366 20.2612 29.0366C21.3154 29.0366 22.1699 28.182 22.1699 27.1279V25.1165C24.1766 24.1404 25.7132 22.3424 26.3467 20.1577H27.9816C29.0964 20.1577 30.0001 19.2498 30.0001 18.1298V16.3931C30.0002 15.2732 29.0965 14.3653 27.9818 14.3653ZM21.4964 14.8727C21.0128 14.8727 20.6207 14.4807 20.6207 13.997C20.6207 13.5133 21.0127 13.1213 21.4964 13.1213C21.9801 13.1213 22.3722 13.5133 22.3722 13.997C22.3722 14.4807 21.9801 14.8727 21.4964 14.8727Z"></path>
</symbol>
<symbol viewBox="0 0 25 25" id="money-stat">
<path d="M3.92074 10.2272H1.1367C0.509043 10.2272 0 10.7362 0 11.3639V23.8639C0 24.491 0.509043 25 1.1367 25H3.92074C4.5484 25 5.05692 24.491 5.05692 23.8639V11.3639C5.05692 10.7362 4.5484 10.2272 3.92074 10.2272Z"></path>
<path d="M10.5687 13.6356H7.78465C7.15646 13.6356 6.64795 14.1447 6.64795 14.7723V23.8627C6.64795 24.4909 7.15646 24.9994 7.78465 24.9994H10.5687C11.1964 24.9994 11.7049 24.4904 11.7049 23.8627V14.7723C11.7049 14.1447 11.1964 13.6356 10.5687 13.6356Z"></path>
<path d="M17.2154 13.6356H14.4313C13.8037 13.6356 13.2952 14.1447 13.2952 14.7723V23.8627C13.2952 24.4909 13.8037 24.9994 14.4313 24.9994H17.2154C17.8436 24.9994 18.3521 24.4904 18.3521 23.8627V14.7723C18.3521 14.1447 17.8436 13.6356 17.2154 13.6356Z"></path>
<path d="M23.8633 10.2272H21.0793C20.4516 10.2272 19.9431 10.7362 19.9431 11.3639V23.8639C19.9431 24.4915 20.4516 25 21.0793 25H23.8633C24.491 25 25 24.4905 25 23.8639V11.3639C25 10.7362 24.491 10.2272 23.8633 10.2272Z"></path>
<path d="M12.8313 6.8457V8.89145C13.4504 8.85049 14.1031 8.56007 14.1031 7.87868C14.1031 7.17549 13.3877 6.96964 12.8313 6.8457Z"></path>
<path d="M11.0522 4.39732C11.0522 4.91434 11.4368 5.21328 12.2118 5.3686V3.51807C11.5076 3.53881 11.0522 3.95264 11.0522 4.39732Z"></path>
<path d="M12.5 0C9.05372 0 6.25 2.80426 6.25 6.25C6.25 9.69468 9.05372 12.4989 12.5 12.4989C15.9463 12.4989 18.75 9.69468 18.75 6.25C18.75 2.80426 15.9463 0 12.5 0ZM12.8314 9.94628V10.5862C12.8314 10.7622 12.6963 10.9378 12.5197 10.9378C12.3452 10.9378 12.2117 10.7622 12.2117 10.5862V9.94628C10.4654 9.90372 9.59681 8.86011 9.59681 8.04362C9.59681 7.63138 9.84628 7.39309 10.2367 7.39309C11.3941 7.39309 10.4941 8.81915 12.2117 8.89096V6.73138C10.6798 6.45319 9.75213 5.78138 9.75213 4.63457C9.75213 3.22979 10.9202 2.50532 12.2117 2.46489V1.91383C12.2117 1.73777 12.3452 1.56223 12.5197 1.56223C12.6963 1.56223 12.8314 1.73777 12.8314 1.91383V2.46489C13.6367 2.48617 15.2904 2.99149 15.2904 4.00479C15.2904 4.40745 14.9894 4.64468 14.6378 4.64468C13.9654 4.64468 13.975 3.53989 12.8314 3.51862V5.48191C14.1952 5.77181 15.4032 6.17447 15.4032 7.76596C15.4032 9.15 14.3702 9.85213 12.8314 9.94628Z"></path>
</symbol>
<symbol viewBox="0 0 24 30" id="money-tag">
<path d="M6.99013 5.625H17.0101L19.1726 3.895C19.9089 3.3075 20.1839 2.35375 19.8726 1.46375C19.5614 0.57375 18.7526 0 17.8126 0H6.18763C5.24763 0 4.43888 0.575 4.12763 1.46375C3.81638 2.3525 4.09138 3.3075 4.82638 3.89375L6.99013 5.625Z"></path>
<path d="M17.1813 7.5H6.81875C3.405 10.8512 0.75 16.7312 0.75 21.5625C0.75 25.7612 2.9725 30 7.9375 30H16.375C20.6162 30 23.25 26.7663 23.25 21.5625C23.25 16.7312 20.595 10.8512 17.1813 7.5ZM11.525 17.8125H12.475C13.9362 17.8125 15.125 19.0013 15.125 20.4625C15.125 21.7763 14.1775 22.8575 12.9375 23.0775V24.0613C12.9375 24.5788 12.5175 24.9988 12 24.9988C11.4825 24.9988 11.0625 24.5788 11.0625 24.0613V23.125H9.8125C9.295 23.125 8.875 22.705 8.875 22.1875C8.875 21.67 9.295 21.25 9.8125 21.25H12.475C12.9025 21.25 13.25 20.9025 13.25 20.475C13.25 20.035 12.9025 19.6875 12.475 19.6875H11.525C10.0638 19.6875 8.875 18.4987 8.875 17.0375C8.875 15.7238 9.8225 14.6425 11.0625 14.4225V13.4375C11.0625 12.92 11.4825 12.5 12 12.5C12.5175 12.5 12.9375 12.92 12.9375 13.4375V14.375H14.1875C14.705 14.375 15.125 14.795 15.125 15.3125C15.125 15.83 14.705 16.25 14.1875 16.25H11.525C11.0975 16.25 10.75 16.5975 10.75 17.025C10.75 17.465 11.0975 17.8125 11.525 17.8125Z"></path>
</symbol>
<symbol viewBox="0 0 25 25" id="money-transfer">
<path d="M5.20825 22.9167C5.20891 23.469 5.42861 23.9986 5.81917 24.3891C6.20973 24.7797 6.73925 24.9994 7.29159 25H17.7083C18.2606 24.9994 18.7901 24.7797 19.1807 24.3891C19.5712 23.9986 19.7909 23.469 19.7916 22.9167V22.0052H5.20825V22.9167Z"></path>
<path d="M19.7916 2.08333C19.7909 1.531 19.5712 1.00148 19.1807 0.610917C18.7901 0.220358 18.2606 0.00065473 17.7083 0L7.29159 0C6.73925 0.00065473 6.20973 0.220358 5.81917 0.610917C5.42861 1.00148 5.20891 1.531 5.20825 2.08333V3.125H19.7916V2.08333Z"></path>
<path d="M24.7098 6.70052L21.5848 3.44531L20.082 4.88802L21.3894 6.25H19.7917V8.33333H21.5018L20.1127 9.66459L21.5541 11.1688L24.6791 8.17396C24.7779 8.07926 24.8571 7.96602 24.9121 7.8407C24.9672 7.71538 24.997 7.58045 24.9998 7.44361C25.0027 7.30677 24.9785 7.17071 24.9288 7.04321C24.879 6.91571 24.8046 6.79926 24.7098 6.70052Z"></path>
<path d="M16.6666 6.24996H19.7916V4.16663H5.20825V16.6666H8.33325V18.75H5.20825V20.8333H19.7916V8.33329H16.6666V6.24996ZM15.6249 10.4166H11.9791C11.841 10.4166 11.7085 10.4715 11.6108 10.5692C11.5131 10.6669 11.4583 10.7993 11.4583 10.9375C11.4583 11.0756 11.5131 11.2081 11.6108 11.3057C11.7085 11.4034 11.841 11.4583 11.9791 11.4583H13.0208C13.6666 11.4576 14.2896 11.697 14.7688 12.1298C15.2481 12.5627 15.5494 13.1582 15.6144 13.8007C15.6793 14.4433 15.5031 15.087 15.1201 15.607C14.737 16.1269 14.1745 16.486 13.5416 16.6145V17.7083H11.4583V16.6666H9.37492V14.5833H13.0208C13.1589 14.5833 13.2914 14.5284 13.389 14.4307C13.4867 14.3331 13.5416 14.2006 13.5416 14.0625C13.5416 13.9243 13.4867 13.7919 13.389 13.6942C13.2914 13.5965 13.1589 13.5416 13.0208 13.5416H11.9791C11.3333 13.5423 10.7103 13.3029 10.231 12.8701C9.75173 12.4372 9.45039 11.8417 9.38549 11.1992C9.32058 10.5566 9.49674 9.9129 9.87977 9.39294C10.2628 8.87298 10.8254 8.51389 11.4583 8.38538V7.29163H13.5416V8.33329H15.6249V10.4166Z"></path>
<path d="M3.49828 16.6667L4.88734 15.3355L3.44593 13.8313L0.320931 16.8261C0.222115 16.9208 0.142929 17.034 0.0879011 17.1594C0.0328728 17.2847 0.00308028 17.4196 0.000226477 17.5564C-0.00262733 17.6933 0.0215135 17.8293 0.0712692 17.9568C0.121025 18.0843 0.19542 18.2008 0.290202 18.2995L3.4152 21.5547L4.91807 20.112L3.61064 18.75H5.2083V16.6667H3.49828Z"></path>
</symbol>
<symbol viewBox="0 0 23 25" id="notification-outlined">
<path d="M10.4424 25C8.28937 25 6.53613 23.2479 6.53613 21.0938C6.53613 20.6625 6.88613 20.3125 7.31738 20.3125C7.74863 20.3125 8.09863 20.6625 8.09863 21.0938C8.09863 22.3866 9.15073 23.4375 10.4424 23.4375C11.734 23.4375 12.7861 22.3866 12.7861 21.0938C12.7861 20.6625 13.1361 20.3125 13.5674 20.3125C13.9986 20.3125 14.3486 20.6625 14.3486 21.0938C14.3486 23.2479 12.5956 25 10.4424 25Z"></path>
<path d="M19.0357 21.875H1.84824C0.843071 21.875 0.0253906 21.0573 0.0253906 20.0521C0.0253906 19.5187 0.257706 19.0136 0.662827 18.6666C0.688957 18.6438 0.716995 18.623 0.746178 18.6041C2.2753 17.2697 3.15039 15.35 3.15039 13.3228V10.4166C3.15039 6.39591 6.42226 3.125 10.442 3.125C10.6087 3.125 10.7889 3.12805 10.9556 3.15628C11.3816 3.22704 11.6692 3.63026 11.5982 4.05521C11.5275 4.48017 11.117 4.7678 10.6993 4.69685C10.6159 4.6833 10.5244 4.6875 10.442 4.6875C7.28381 4.6875 4.71289 7.25727 4.71289 10.4166V13.3228C4.71289 15.8396 3.60968 18.2209 1.68898 19.8551C1.67334 19.8677 1.6598 19.8792 1.64301 19.8906C1.61497 19.9261 1.58789 19.9802 1.58789 20.0521C1.58789 20.1937 1.70672 20.3125 1.84824 20.3125H19.0357C19.1775 20.3125 19.2963 20.1937 19.2963 20.0521C19.2963 19.9791 19.2692 19.9261 19.24 19.8906C19.2244 19.8792 19.2108 19.8677 19.1952 19.8551C17.2734 18.2198 16.1713 15.8396 16.1713 13.3228V12.1876C16.1713 11.7563 16.5213 11.4063 16.9525 11.4063C17.3838 11.4063 17.7338 11.7563 17.7338 12.1876V13.3228C17.7338 15.3511 18.6098 17.2718 20.1411 18.6073C20.1691 18.626 20.1962 18.6459 20.2212 18.6678C20.6265 19.0136 20.8588 19.5187 20.8588 20.0521C20.8588 21.0573 20.0411 21.875 19.0357 21.875Z"></path>
<path d="M17.7338 10.4166C14.8619 10.4166 12.5254 8.08029 12.5254 5.2084C12.5254 2.3365 14.8619 0 17.7338 0C20.6057 0 22.942 2.3365 22.942 5.2084C22.942 8.08029 20.6057 10.4166 17.7338 10.4166ZM17.7338 1.5625C15.7233 1.5625 14.0879 3.19786 14.0879 5.2084C14.0879 7.21874 15.7233 8.8541 17.7338 8.8541C19.7441 8.8541 21.3795 7.21874 21.3795 5.2084C21.3795 3.19786 19.7441 1.5625 17.7338 1.5625Z"></path>
</symbol>
<symbol viewBox="0 0 22 24" id="paypal">
<path d="M18.995 6.38245C18.9812 4.85217 18.3642 3.38914 17.278 2.31113C16.1918 1.23312 14.7241 0.627193 13.1938 0.62495H4.75001C4.54028 0.622251 4.33656 0.694979 4.17595 0.829886C4.01535 0.964794 3.90855 1.1529 3.87501 1.35995L0.882508 20.1287C0.863811 20.253 0.872109 20.3798 0.906837 20.5006C0.941564 20.6214 1.00191 20.7333 1.08376 20.8287C1.16508 20.9263 1.2667 21.0051 1.38154 21.0595C1.49638 21.1139 1.62169 21.1426 1.74876 21.1437H5.36251L5.17001 22.36C5.14956 22.486 5.15696 22.615 5.19168 22.7379C5.2264 22.8608 5.28761 22.9746 5.37099 23.0713C5.45438 23.1681 5.55792 23.2454 5.67436 23.2978C5.7908 23.3503 5.91731 23.3766 6.04501 23.375H10.1138C10.3222 23.378 10.5249 23.3065 10.6853 23.1733C10.8457 23.0402 10.9533 22.8541 10.9888 22.6487L11.8638 17.3025H14.62C16.3451 17.2955 17.9974 16.6059 19.2156 15.3844C20.4338 14.1629 21.119 12.5088 21.1213 10.7837V10.5387C21.1204 9.72721 20.9272 8.92748 20.5576 8.20504C20.1881 7.4826 19.6526 6.85801 18.995 6.38245V6.38245ZM5.49376 2.37495H13.1938C14.1118 2.37777 15.0017 2.69162 15.7184 3.26529C16.4351 3.83896 16.9362 4.63859 17.14 5.5337C16.7615 5.44492 16.3738 5.40087 15.985 5.40245H8.68751C8.47778 5.39975 8.27406 5.47248 8.11345 5.60739C7.95285 5.74229 7.84605 5.9304 7.81251 6.13745L7.29626 9.37495C7.25913 9.60702 7.31571 9.84433 7.45355 10.0347C7.59138 10.225 7.79919 10.3528 8.03126 10.39C8.26332 10.4271 8.50063 10.3705 8.69098 10.2327C8.88133 10.0948 9.00913 9.88702 9.04626 9.65495L9.44876 7.13495H16.0025C16.422 7.13715 16.8373 7.21726 17.2275 7.3712C17.0612 8.74097 16.4003 10.0028 15.3691 10.9196C14.3379 11.8365 13.0073 12.3451 11.6275 12.35H7.56751C7.35906 12.3469 7.15637 12.4184 6.99595 12.5516C6.83553 12.6847 6.72793 12.8708 6.69251 13.0762L5.62501 19.3937H2.77251L5.49376 2.37495ZM19.3713 10.7837C19.369 12.0447 18.8682 13.2537 17.9782 14.147C17.0881 15.0403 15.881 15.5455 14.62 15.5525H11.12C10.9116 15.5494 10.7089 15.6209 10.5485 15.7541C10.388 15.8872 10.2804 16.0733 10.245 16.2787L9.37001 21.625H7.06001L7.25251 20.4087L8.30251 14.1175H11.61C13.2435 14.1126 14.8296 13.5677 16.121 12.5674C17.4125 11.5672 18.3368 10.1678 18.75 8.58745C19.1561 9.15685 19.3734 9.83931 19.3713 10.5387V10.7837Z"></path>
</symbol>
<symbol viewBox="0 0 20 19" id="pencel-alt">
<path d="M18.8532 5.23861L17.1834 6.90843C17.0132 7.07867 16.7379 7.07867 16.5676 6.90843L12.547 2.88783C12.3768 2.71759 12.3768 2.4423 12.547 2.27206L14.2168 0.602246C14.8942 -0.0750977 15.9953 -0.0750977 16.6763 0.602246L18.8532 2.77916C19.5342 3.45651 19.5342 4.55764 18.8532 5.23861ZM11.1127 3.70644L1.60086 13.2182L0.832966 17.6192C0.727924 18.2132 1.24589 18.7275 1.83993 18.6261L6.24085 17.8546L15.7526 8.3428C15.9229 8.17256 15.9229 7.89728 15.7526 7.72703L11.732 3.70644C11.5582 3.5362 11.2829 3.5362 11.1127 3.70644ZM5.31358 12.4032C5.11436 12.204 5.11436 11.8853 5.31358 11.6861L10.8917 6.10793C11.0909 5.90871 11.4097 5.90871 11.6089 6.10793C11.8081 6.30715 11.8081 6.6259 11.6089 6.82512L6.03076 12.4032C5.83155 12.6025 5.5128 12.6025 5.31358 12.4032ZM4.00598 15.4495H5.74461V16.7643L3.40832 17.1736L2.28183 16.0471L2.69113 13.7108H4.00598V15.4495Z"></path>
</symbol>
<symbol viewBox="0 0 20 20" id="pie-chart">
<path d="M10.5862 10.5855V0C4.91616 0.29741 0.298142 4.91538 0.000732422 10.5855H10.5862ZM8.24258 8.82776H7.07076V7.65594H8.24258V8.82776ZM4.7271 5.31228H5.89893V6.48411H4.7271V5.31228ZM7.65667 5.06967L8.48519 5.8982L5.31301 9.07037L4.48449 8.24185L7.65667 5.06967Z"></path>
<path d="M10.586 11.7573H3.57739C3.86293 15.4914 6.85198 18.4804 10.5861 18.766V11.7573H10.586Z"></path>
<path d="M11.7578 2.34375C11.7578 2.4696 11.7578 20.1376 11.7578 19.9993C16.3308 19.6956 19.9997 15.7616 19.9997 11.113C19.9997 6.46401 16.3319 2.64643 11.7578 2.34375ZM15.2733 10.5856C16.2426 10.5856 17.031 11.3741 17.031 12.3433C17.031 13.1062 16.5397 13.7505 15.8592 13.9932V15.2729H14.6874V13.9932C14.0069 13.7505 13.5156 13.1062 13.5156 12.3433H14.6874C14.6874 12.6666 14.95 12.9293 15.2733 12.9293C15.5966 12.9293 15.8592 12.6666 15.8592 12.3433C15.8592 12.0201 15.5966 11.7574 15.2733 11.7574C14.304 11.7574 13.5156 10.9689 13.5156 9.99969C13.5156 9.23683 14.0069 8.59256 14.6874 8.34987V7.07012H15.8592V8.34987C16.5397 8.59256 17.031 9.23683 17.031 9.99969H15.8592C15.8592 9.67642 15.5966 9.41377 15.2733 9.41377C14.95 9.41377 14.6874 9.67642 14.6874 9.99969C14.6874 10.323 14.95 10.5856 15.2733 10.5856Z"></path>
</symbol>
<symbol viewBox="0 0 25 25" id="play-station">
<path d="M20.2994 13.265C19.8337 13.265 19.3736 13.3332 18.9314 13.4675L13.2315 15.0454V6.98364C13.2315 6.57978 13.5601 6.25122 13.9639 6.25122C14.3678 6.25122 14.6963 6.57978 14.6963 6.98364V12.6813H15.4288C18.2558 12.6813 20.5557 10.3813 20.5557 7.55435C20.5557 5.2667 19.0191 3.23696 16.8161 2.61753L7.35586 0V12.556L3.55991 13.6067C3.11167 13.7189 2.68198 13.8971 2.28261 14.1366C0.0601037 15.4691 -0.66392 18.3615 0.668697 20.584C1.19648 21.4642 1.97671 22.1334 2.92505 22.5193C3.49038 22.7494 4.09931 22.8661 4.70742 22.866C5.08501 22.866 5.46235 22.821 5.82856 22.7303L7.35586 22.3077V23.5762L12.4991 25L21.6583 22.4646L21.6775 22.459C22.6192 22.1705 23.465 21.576 24.0592 20.7849C24.6741 19.9663 24.9991 18.9911 24.9991 17.9648C24.9991 15.3733 22.8908 13.265 20.2994 13.265ZM7.35581 16.6719L3.50405 17.7381L3.89487 19.1499L7.35581 18.1918V20.7878L5.46694 21.3107C5.20747 21.3742 4.94672 21.405 4.68935 21.405C3.57319 21.4049 2.52182 20.8262 1.925 19.8307C1.00776 18.3009 1.5061 16.3101 3.03588 15.3928C3.31342 15.2264 3.61167 15.103 3.92231 15.026L7.35581 14.0758V16.6719ZM11.7666 6.98364V23.2773L8.8207 22.4618V1.9252L16.4226 4.02856C17.9936 4.47031 19.0909 5.92022 19.0909 7.55439C19.0909 9.3229 17.8306 10.8026 16.1612 11.1429V6.98364C16.1612 5.77207 15.1755 4.78638 13.9639 4.78638C12.7523 4.78638 11.7666 5.77207 11.7666 6.98364ZM21.2573 21.0556L13.2315 23.2773V20.6813L21.4946 18.3938L21.1038 16.9821L13.2315 19.1613V16.5653L19.3314 14.8767L19.3505 14.8711C19.6565 14.7774 19.9758 14.7299 20.2994 14.7299C22.0831 14.7299 23.5343 16.1811 23.5343 17.9647C23.5342 19.3931 22.6195 20.6341 21.2573 21.0556Z"></path>
</symbol>
<symbol viewBox="0 0 20 20" id="repeat">
<path d="M19.8174 3.93342L16.0675 0.183539C15.8887 0.00479462 15.62 -0.0489537 15.3863 0.0485433C15.1525 0.14604 15 0.372283 15 0.624775V2.49972H6.87527C3.07789 2.49972 0.000488281 5.57712 0.000488281 9.3745C0.000488281 9.71949 0.280479 9.99948 0.625469 9.99948H3.12539C3.47038 9.99948 3.75037 9.71949 3.75037 9.3745C3.75037 7.64831 5.14908 6.2496 6.87527 6.2496H15V8.12454C15 8.37703 15.1525 8.60578 15.3863 8.70202C15.62 8.79952 15.8887 8.74577 16.0675 8.56703L19.8174 4.81714C20.0611 4.5734 20.0611 4.17716 19.8174 3.93342Z"></path>
<path d="M19.3747 9.99951H16.8748C16.5298 9.99951 16.2498 10.2795 16.2498 10.6245C16.2498 12.3507 14.8511 13.7494 13.1249 13.7494H5.00016V11.8745C5.00016 11.622 4.84766 11.3932 4.61392 11.297C4.38018 11.2007 4.11268 11.2545 3.93269 11.4332L0.182807 15.1831C-0.0609356 15.4269 -0.0609356 15.8231 0.182807 16.0668L3.93269 19.8167C4.11143 19.9955 4.38018 20.0492 4.61392 19.9517C4.84766 19.8542 5.00016 19.6267 5.00016 19.3742V17.4993H13.1249C16.9223 17.4993 19.9997 14.4219 19.9997 10.6245C19.9997 10.2795 19.7197 9.99951 19.3747 9.99951Z"></path>
</symbol>
<symbol viewBox="0 0 27 25" id="ring-circular">
<path d="M25.3716 13.0972C24.938 13.0453 24.5444 13.3551 24.4925 13.7889C23.8424 19.2357 19.2035 23.3434 13.7021 23.3434C8.75397 23.3434 4.50459 20.0205 3.22642 15.3894L4.17274 15.9092C4.55568 16.1195 5.03666 15.9794 5.24677 15.5967C5.45709 15.2137 5.31722 14.7328 4.93429 14.5224L2.50689 13.1893C2.12437 12.9792 1.64379 13.1186 1.43327 13.5009L0.0982465 15.9252C-0.112482 16.308 0.0269738 16.7889 0.409498 16.9997C0.804588 17.1845 1.25612 17.0936 1.48394 16.6884L1.79334 16.1267C3.36072 21.2682 8.14712 24.9254 13.7021 24.9254C20.0041 24.9254 25.3183 20.2183 26.0631 13.9764C26.1151 13.5425 25.8052 13.1489 25.3716 13.0972Z"></path>
<path d="M26.5214 6.80969C26.1206 6.63686 25.655 6.82164 25.482 7.22291L25.2327 7.8005C24.4539 5.89612 23.2039 4.19196 21.5939 2.87259C19.3772 1.05555 16.5745 0.0550537 13.702 0.0550537C10.8295 0.0550537 8.02676 1.05555 5.80989 2.87259C3.62371 4.6643 2.10021 7.16502 1.52014 9.91376C1.42991 10.3412 1.70347 10.7608 2.1309 10.851C2.55771 10.9412 2.97793 10.6679 3.06795 10.2405C3.57407 7.84252 4.90394 5.66047 6.81265 4.09597C8.74731 2.51025 11.1941 1.63706 13.702 1.63706C16.2097 1.63706 18.6565 2.51025 20.5912 4.09597C22.0782 5.31461 23.2136 6.90836 23.8823 8.68688L22.8807 8.25615C22.4795 8.08374 22.0141 8.26892 21.8415 8.67019C21.6689 9.07146 21.8543 9.53659 22.2556 9.70921L24.7999 10.8036C25.2329 10.9826 25.6546 10.7997 25.839 10.3902L26.9346 7.84912C27.1077 7.44805 26.9227 6.98272 26.5214 6.80969Z"></path>
<path d="M18.5773 6.67111C18.8043 6.2132 18.8391 5.6941 18.6757 5.20982C18.5124 4.72553 18.1702 4.33394 17.7123 4.10694C16.7668 3.63852 15.6168 4.02661 15.1482 4.9719C15.0458 5.17871 14.9827 5.39789 14.9593 5.62077C14.3483 5.56453 13.7272 5.62139 13.1253 5.79462C11.9273 6.13904 10.9083 6.91398 10.2561 7.97627L8.12018 11.455C7.83488 11.404 7.5399 11.4252 7.25769 11.5203C6.81626 11.6693 6.45927 11.9811 6.25267 12.3983L6.11177 12.6823C5.68496 13.5438 6.03844 14.5921 6.90009 15.0189L11.5238 17.3099C11.0685 18.257 11.2724 19.3214 12.454 19.9159C13.4899 20.3415 14.6431 19.9245 15.0909 19.0775L15.5797 19.3195C15.824 19.4407 16.0873 19.5018 16.3522 19.5018C16.5398 19.5018 16.7283 19.4712 16.9112 19.4094C17.3525 19.2606 17.7094 18.9488 17.9163 18.5314L18.0569 18.2474C18.2638 17.83 18.2957 17.3573 18.1468 16.9158C18.0516 16.6336 17.8897 16.386 17.6763 16.1899L19.1503 12.3834C19.6004 11.2208 19.5996 9.94059 19.1481 8.77881C18.9213 8.19503 18.5903 7.66646 18.1756 7.21431C18.3385 7.06064 18.4749 6.87793 18.5773 6.67111ZM16.8614 5.48708C17.0449 5.48708 17.1936 5.6358 17.1936 5.81914C17.1936 6.00267 17.0449 6.15119 16.8614 6.15119C16.678 6.15119 16.5293 6.00247 16.5293 5.81914C16.5293 5.6358 16.678 5.48708 16.8614 5.48708ZM13.4697 18.5195C13.3659 18.5547 13.2547 18.5471 13.1564 18.4985C13.0582 18.4499 12.9848 18.3658 12.9498 18.262C12.9224 18.1808 12.9214 18.0949 12.9455 18.0146L13.6694 18.3732C13.6197 18.441 13.5509 18.4923 13.4697 18.5195ZM17.675 11.8122L16.0693 15.9584C15.8434 16.4707 16.0595 17.0771 16.566 17.3284H16.5662C16.6488 17.3725 16.6791 17.4632 16.6395 17.5451L16.4986 17.8292C16.4515 17.9116 16.3674 17.9386 16.2821 17.9021L7.60252 13.6015C7.5226 13.5619 7.48964 13.4647 7.52919 13.385L7.67009 13.1009C7.70819 13.0307 7.78215 12.9808 7.88679 13.0278C8.13913 13.1528 8.42504 13.172 8.692 13.0822C8.94393 12.9971 9.15054 12.8243 9.27805 12.5929L11.6041 8.80414C12.0492 8.07906 12.7449 7.55007 13.5626 7.31483C14.3802 7.07959 15.2505 7.15807 16.0127 7.53586C16.0129 7.53586 16.0129 7.53586 16.0131 7.53607C16.0133 7.53607 16.0133 7.53607 16.0135 7.53627C16.7759 7.91406 17.3654 8.55881 17.6736 9.35187C17.9818 10.1449 17.9822 11.0187 17.675 11.8122Z"></path>
</symbol>
<symbol viewBox="0 0 26 30" id="safety-check">
<path d="M24.483 20.0338C23.6767 22.2192 22.4572 24.1193 20.858 25.681C19.0377 27.4585 16.6541 28.8709 13.7734 29.8785C13.6789 29.9114 13.5802 29.9384 13.4811 29.9584C13.3502 29.9842 13.217 29.9982 13.0849 30H13.0591C12.9183 30 12.7768 29.9858 12.6365 29.9584C12.5374 29.9384 12.4402 29.9114 12.3461 29.8792C9.46194 28.8732 7.07539 27.4615 5.25326 25.684C3.65338 24.1223 2.43412 22.2233 1.62891 20.0379C0.164756 16.0645 0.248069 11.6874 0.315132 8.16993L0.316276 8.11591C0.32978 7.82546 0.338477 7.52036 0.343284 7.18345C0.367774 5.52932 1.68293 4.16083 3.33729 4.06859C6.78654 3.8761 9.45485 2.75115 11.7347 0.52893L11.7547 0.51062C12.1332 0.163406 12.6102 -0.00688251 13.0849 0.000212866C13.5427 0.00616381 13.9986 0.176223 14.3637 0.51062L14.3831 0.52893C16.6635 2.75115 19.3318 3.8761 22.781 4.06859C24.4354 4.16083 25.7506 5.52932 25.7751 7.18345C25.7799 7.52265 25.7886 7.82729 25.8021 8.11591L25.8027 8.1388C25.8696 11.6629 25.9524 16.0487 24.483 20.0338Z"></path>
<path d="M24.483 20.0338C23.6767 22.2192 22.4572 24.1194 20.858 25.681C19.0377 27.4585 16.6541 28.871 13.7734 29.8785C13.6789 29.9115 13.5803 29.9385 13.4812 29.9584C13.3502 29.9842 13.217 29.9982 13.085 30V0.000244141C13.5427 0.00619509 13.9987 0.176254 14.3637 0.510651L14.3832 0.528962C16.6635 2.75118 19.3318 3.87613 22.7811 4.06862C24.4354 4.16086 25.7506 5.52935 25.7751 7.18348C25.7799 7.52268 25.7886 7.82732 25.8021 8.11594L25.8028 8.13883C25.8696 11.6629 25.9525 16.0488 24.483 20.0338Z"></path>
<path d="M20.5356 15C20.5356 19.1137 17.1955 22.4622 13.0852 22.4769H13.0589C8.93652 22.4769 5.58203 19.1226 5.58203 15C5.58203 10.8776 8.93652 7.52332 13.0589 7.52332H13.0852C17.1955 7.53796 20.5356 10.8865 20.5356 15Z"></path>
<path d="M17.6525 13.7963L13.1146 17.8221L12.134 18.6919C11.9024 18.8974 11.5986 19 11.295 19C10.9912 19 10.6877 18.8974 10.4557 18.6919L8.34747 16.821C7.88418 16.41 7.88418 15.7444 8.34747 15.3331C8.81015 14.9222 9.56154 14.9222 10.0248 15.3331L11.295 16.4598L15.9752 12.3084C16.4385 11.8972 17.1899 11.8972 17.6525 12.3084C18.1158 12.7194 18.1158 13.3859 17.6525 13.7963Z"></path>
</symbol>
<symbol viewBox="0 0 20 20" id="search-icon">
<path d="M19.3359 18.2109L14.7344 13.6094C15.875 12.2188 16.5625 10.4375 16.5625 8.49609C16.5625 4.04297 12.9492 0.429688 8.49609 0.429688C4.03906 0.429688 0.429688 4.04297 0.429688 8.49609C0.429688 12.9492 4.03906 16.5625 8.49609 16.5625C10.4375 16.5625 12.2148 15.8789 13.6055 14.7383L18.207 19.3359C18.5195 19.6484 19.0234 19.6484 19.3359 19.3359C19.6484 19.0273 19.6484 18.5195 19.3359 18.2109ZM8.49609 14.957C4.92969 14.957 2.03125 12.0586 2.03125 8.49609C2.03125 4.93359 4.92969 2.03125 8.49609 2.03125C12.0586 2.03125 14.9609 4.93359 14.9609 8.49609C14.9609 12.0586 12.0586 14.957 8.49609 14.957Z"></path>
</symbol>
<symbol viewBox="0 0 26 23" id="send-icon">
<path d="M25.9824 0.923369C26.1091 0.333347 25.5307 -0.164153 24.9664 0.0511577L0.490037 9.39483C0.195457 9.50731 0.000610804 9.78965 1.43342e-06 10.105C-0.000607937 10.4203 0.193121 10.7034 0.487294 10.817L7.36317 13.4726V21.8369C7.36317 22.1897 7.60545 22.4963 7.94873 22.5779C8.28972 22.659 8.64529 22.4967 8.80515 22.1796L11.6489 16.5364L18.5888 21.6868C19.011 22.0001 19.6178 21.8008 19.7714 21.2974C26.251 0.0528342 25.9708 0.97674 25.9824 0.923369ZM19.9404 3.60043L8.01692 12.092L2.88664 10.1106L19.9404 3.60043ZM8.8866 13.3428L19.2798 5.94118C10.3366 15.3758 10.8037 14.8792 10.7647 14.9317C10.7067 15.0096 10.8655 14.7058 8.8866 18.6327V13.3428ZM18.6293 19.8197L12.5206 15.2862L23.566 3.63395L18.6293 19.8197Z"></path>
</symbol>
<symbol viewBox="0 0 30 30" id="service-2">
<path d="M29.977 5.22372C29.8494 3.77364 28.0891 3.12799 27.0587 4.15854L25.5869 5.63036C25.2578 5.95942 24.7175 5.96481 24.3825 5.64231C24.0348 5.30768 24.0529 4.73118 24.3946 4.38946L25.8422 2.94184C26.8716 1.91241 26.2287 0.15143 24.7774 0.0236373C20.833 -0.323179 17.7043 3.3452 18.7504 7.23512L0.832214 25.1533C-0.277317 26.2628 -0.277493 28.0588 0.832214 29.1685C1.93923 30.2754 3.74034 30.2755 4.84735 29.1685L22.7609 11.2548C26.6044 12.2999 30.3275 9.20411 29.977 5.22372Z"></path>
<path d="M1.87498 6.88238C1.91699 6.96523 1.97183 7.04093 2.03752 7.10662L4.58096 9.65C4.9242 9.99324 5.48066 9.99318 5.82385 9.65L7.1173 8.35654L9.5875 10.8267L6.94662 13.4676C6.2623 14.1531 6.26289 15.2681 6.94721 15.953L7.22435 16.2301L16.238 7.21706L15.9609 6.93992C15.273 6.25326 14.1631 6.25226 13.4743 6.93992L10.8304 9.58378L8.36019 7.11359L9.65365 5.82013C9.99689 5.47695 9.99689 4.92042 9.65365 4.57724L7.11027 2.0338C7.04389 1.96736 6.96725 1.91205 6.88334 1.86992L3.63244 0.236791C3.29377 0.0666351 2.88443 0.13267 2.61642 0.400678L0.395135 2.62191C0.126424 2.89062 0.060858 3.30154 0.232596 3.64056L1.87498 6.88238Z"></path>
<path d="M21.3823 15.1198L15.126 21.3761L22.311 28.5629C24.0394 30.2913 26.8378 30.2918 28.5667 28.5629C30.2917 26.838 30.2917 24.0315 28.5667 22.3071L21.3823 15.1198ZM26.5307 26.5251C26.1897 26.8673 25.6318 26.8689 25.288 26.5251L20.2996 21.5366C19.9562 21.1933 19.9562 20.6367 20.2996 20.2939C20.6429 19.9506 21.1995 19.9506 21.5423 20.2939L26.5307 25.2824C26.874 25.6257 26.874 26.1817 26.5307 26.5251Z"></path>
</symbol>
<symbol viewBox="0 0 25 25" id="service">
<path d="M24.7852 1.25045L23.7495 0.214663C23.5336 -0.00135204 23.2063 -0.0605316 22.9286 0.0654447L17.3654 2.52135C17.1465 2.62096 16.9906 2.8213 16.9477 3.05743C16.9051 3.2942 16.9805 3.53638 17.1505 3.70636L21.2936 7.84946C21.4636 8.01943 21.7058 8.09477 21.9425 8.05224C22.1787 8.00933 22.379 7.85351 22.4786 7.63452L24.9345 2.07125C25.0604 1.79357 25.0013 1.46637 24.7852 1.25045Z"></path>
<path d="M4.73145 16.1255L0.642589 20.2143C-0.214196 21.0711 -0.214196 22.4649 0.642589 23.3217L1.67833 24.3574C2.53512 25.2142 3.92891 25.2142 4.78565 24.3574L8.87451 20.2685L4.73145 16.1255ZM4.27496 21.7711C3.98868 22.0574 3.52535 22.0574 3.23912 21.7711C2.95294 21.4848 2.95294 21.0215 3.23912 20.7353L5.25645 18.718C5.54273 18.4317 6.00601 18.4317 6.29219 18.718C6.57847 19.0043 6.57847 19.4675 6.29219 19.7538L4.27496 21.7711Z"></path>
<path d="M11.9818 17.1612L7.83868 13.0181C7.26763 12.4471 6.33814 12.4471 5.76715 13.0181C5.19611 13.5892 5.19611 14.5187 5.76715 15.0897L9.91026 19.2328C10.4812 19.8038 11.4107 19.8038 11.9818 19.2328C12.5528 18.6619 12.5528 17.7323 11.9818 17.1612Z"></path>
<path d="M19.2222 7.84941L17.1506 5.77783L11.464 11.4644C10.8919 10.8924 9.96455 10.8924 9.39243 11.4644L8.87451 11.9824L13.0176 16.1255L13.5355 15.6075C14.1076 15.0354 14.1076 14.1081 13.5355 13.536L19.2222 7.84941Z"></path>
<path d="M23.7146 17.4979C22.5256 16.3089 21.0959 16.0532 19.4554 16.3464L16.1256 13.017L15.3304 13.8121C15.5922 14.796 15.3377 15.8762 14.5708 16.6431L14.054 17.1599L16.3455 19.4513C16.1144 20.7442 16.1361 21.8409 16.9392 23.0303C17.8658 24.4034 19.4876 25.1839 21.1868 24.95C21.4677 24.9114 21.7023 24.7166 21.7926 24.4478C21.8828 24.1791 21.8132 23.8823 21.6128 23.6818L20.6055 22.6763V20.605H22.679L23.6806 21.6067C23.8815 21.8076 24.1791 21.8767 24.448 21.7857C24.7171 21.6947 24.9113 21.459 24.949 21.1774C25.1279 19.8452 24.6921 18.4749 23.7146 17.4979Z"></path>
<path d="M8.64437 5.53236C8.93504 3.90898 8.69969 2.48085 7.49286 1.27314C6.67172 0.45205 5.57308 0 4.39936 0C4.20175 0 4.00624 0.0128906 3.81327 0.0384277C3.53149 0.0758299 3.2956 0.270263 3.20448 0.53955C3.11337 0.808739 3.18295 1.10639 3.38393 1.30737L4.39545 2.30883V4.39447H2.31376L1.30976 3.37641C1.10922 3.17587 0.812204 3.10649 0.543357 3.19697C0.274607 3.28745 0.0802229 3.52231 0.0415999 3.80331C-0.181544 5.42816 0.522507 7.07889 1.95898 8.04862C3.15292 8.85301 4.25614 8.87293 5.53944 8.64159L7.84027 10.9462L8.35731 10.4291C9.1242 9.66224 10.2043 9.40779 11.1882 9.66951L11.983 8.87469L8.64437 5.53236Z"></path>
</symbol>
<symbol viewBox="0 0 25 25" id="setting-outlined">
<path d="M13.2845 25H11.7155C10.4465 25 9.41401 23.9676 9.41401 22.6986V22.1678C8.87451 21.9954 8.35034 21.7778 7.84678 21.5172L7.47061 21.8934C6.55952 22.8056 5.1001 22.7789 4.21548 21.8931L3.10654 20.7842C2.22036 19.899 2.19487 18.44 3.10684 17.5291L3.48271 17.1532C3.22212 16.6496 3.00459 16.1255 2.83218 15.5859H2.30142C1.03247 15.5859 0 14.5535 0 13.2845V11.7155C0 10.4465 1.03247 9.41406 2.30146 9.41406H2.83223C3.00464 8.87451 3.22217 8.35039 3.48276 7.84683L3.10659 7.4707C2.19517 6.56025 2.22031 5.10117 3.10688 4.21558L4.21592 3.10659C5.10259 2.2187 6.56167 2.19653 7.471 3.10688L7.84683 3.48271C8.35039 3.22217 8.87456 3.00459 9.41406 2.83218V2.30142C9.41406 1.03242 10.4465 0 11.7155 0H13.2845C14.5535 0 15.5859 1.03242 15.5859 2.30142V2.83223C16.1254 3.00459 16.6496 3.22217 17.1532 3.48276L17.5293 3.10659C18.4404 2.19438 19.8999 2.22114 20.7845 3.10693L21.8934 4.21582C22.7796 5.10103 22.8051 6.55996 21.8931 7.47095L21.5172 7.84683C21.7778 8.35039 21.9954 8.87446 22.1678 9.41406H22.6985C23.9675 9.41406 25 10.4465 25 11.7155V13.2845C25 14.5535 23.9675 15.5859 22.6985 15.5859H22.1678C21.9954 16.1255 21.7778 16.6496 21.5172 17.1532L21.8934 17.5293C22.8048 18.4398 22.7797 19.8989 21.8931 20.7845L20.7841 21.8935C19.8974 22.7813 18.4383 22.8035 17.529 21.8932L17.1532 21.5173C16.6496 21.7779 16.1254 21.9955 15.5859 22.1679V22.6987C15.5859 23.9676 14.5535 25 13.2845 25ZM8.09165 19.979C8.79121 20.3927 9.54414 20.7053 10.3295 20.908C10.6529 20.9914 10.8789 21.2831 10.8789 21.6171V22.6986C10.8789 23.1599 11.2542 23.5352 11.7155 23.5352H13.2845C13.7458 23.5352 14.1211 23.1599 14.1211 22.6986V21.6171C14.1211 21.2831 14.3471 20.9914 14.6706 20.908C15.4559 20.7053 16.2088 20.3927 16.9084 19.979C17.1962 19.8088 17.5627 19.8551 17.7992 20.0916L18.5652 20.8576C18.8955 21.1883 19.4258 21.1806 19.748 20.858L20.8577 19.7483C21.1791 19.4273 21.1898 18.8968 20.858 18.5654L20.0917 17.7991C19.8552 17.5626 19.8089 17.1961 19.9791 16.9083C20.3928 16.2088 20.7053 15.4559 20.908 14.6705C20.9915 14.3471 21.2832 14.1211 21.6172 14.1211H22.6986C23.1599 14.1211 23.5352 13.7458 23.5352 13.2846V11.7155C23.5352 11.2542 23.1599 10.879 22.6986 10.879H21.6172C21.2832 10.879 20.9915 10.653 20.908 10.3296C20.7053 9.54419 20.3928 8.79126 19.9791 8.09175C19.8089 7.80395 19.8552 7.43745 20.0917 7.20103L20.8577 6.43496C21.1889 6.1042 21.1802 5.57393 20.858 5.2521L19.7484 4.14248C19.4268 3.82041 18.8963 3.81099 18.5655 4.14219L17.7992 4.90855C17.5628 5.14502 17.1962 5.19131 16.9084 5.02109C16.2089 4.60737 15.456 4.29482 14.6706 4.09214C14.3472 4.00869 14.1212 3.71699 14.1212 3.38296V2.30142C14.1212 1.84014 13.7458 1.46484 13.2846 1.46484H11.7156C11.2543 1.46484 10.879 1.84014 10.879 2.30142V3.38286C10.879 3.71689 10.653 4.00859 10.3295 4.09204C9.54419 4.29473 8.79126 4.60728 8.0917 5.021C7.80381 5.19116 7.43735 5.14487 7.20093 4.90845L6.43491 4.14238C6.10464 3.81172 5.57422 3.81938 5.2521 4.14204L4.14238 5.25171C3.821 5.57271 3.81025 6.10313 4.14209 6.43457L4.90845 7.20093C5.14487 7.43735 5.19116 7.80386 5.021 8.09165C4.60728 8.79116 4.29478 9.54409 4.09209 10.3295C4.00859 10.6529 3.71689 10.8789 3.38291 10.8789H2.30146C1.84019 10.8789 1.46484 11.2542 1.46484 11.7155V13.2845C1.46484 13.7458 1.84019 14.1211 2.30146 14.1211H3.38286C3.71689 14.1211 4.00854 14.3471 4.09204 14.6705C4.29473 15.4559 4.60728 16.2088 5.02095 16.9083C5.19111 17.1961 5.14482 17.5626 4.9084 17.799L4.14233 18.5651C3.81118 18.8959 3.81982 19.4261 4.14204 19.7479L5.25166 20.8576C5.57329 21.1796 6.10376 21.1891 6.43452 20.8579L7.20083 20.0915C7.37505 19.9173 7.7375 19.7695 8.09165 19.979Z"></path>
<path d="M12.5 17.9395C9.50063 17.9395 7.06055 15.4993 7.06055 12.5C7.06055 9.50068 9.50063 7.06055 12.5 7.06055C15.4994 7.06055 17.9395 9.50068 17.9395 12.5C17.9395 15.4993 15.4994 17.9395 12.5 17.9395ZM12.5 8.52539C10.3083 8.52539 8.52539 10.3084 8.52539 12.5C8.52539 14.6916 10.3084 16.4746 12.5 16.4746C14.6916 16.4746 16.4746 14.6916 16.4746 12.5C16.4746 10.3084 14.6917 8.52539 12.5 8.52539Z"></path>
</symbol>
<symbol viewBox="0 0 25 25" id="settings-2">
<path d="M4.20898 21.5226C4.61349 21.5226 4.94141 21.1947 4.94141 20.7902C4.94141 20.3857 4.61349 20.0577 4.20898 20.0577C3.80448 20.0577 3.47656 20.3857 3.47656 20.7902C3.47656 21.1947 3.80448 21.5226 4.20898 21.5226Z"></path>
<path d="M19.8337 12.0366C21.1271 11.8463 22.3007 11.2558 23.2275 10.329C24.1099 9.44667 24.6907 8.3328 24.907 7.10785C25.1183 5.91136 24.9697 4.69442 24.4773 3.58856C24.2684 3.11951 23.653 3.00574 23.2903 3.36859L20.2899 6.36888C20.166 6.49271 19.9646 6.49271 19.8407 6.36888L18.6309 5.15916C18.5073 5.03553 18.5073 4.83436 18.6309 4.71073L21.6317 1.71004C21.9948 1.34695 21.8804 0.731817 21.4117 0.523126C20.3058 0.0306451 19.0888 -0.117988 17.8923 0.0933405C16.6673 0.309649 15.5534 0.890411 14.671 1.77278C13.7442 2.69959 13.1536 3.87313 12.9634 5.16649C12.8063 6.23387 12.9316 7.30179 13.3255 8.28841L11.1284 10.0932L6.222 5.18695L7.08519 4.32381C7.39451 4.01453 7.36531 3.50369 7.02205 3.23182L3.70115 0.601544C3.4097 0.370733 2.99144 0.394854 2.7285 0.657794L0.656915 2.72928C0.393976 2.99217 0.369757 3.41038 0.600665 3.70189L3.23104 7.02264C3.50291 7.36585 4.01341 7.39544 4.32308 7.08578L5.18621 6.22264L9.99109 11.0273L0.972003 18.4358C-0.228729 19.3855 -0.332343 21.1723 0.749933 22.2545L2.74505 24.2496C3.82718 25.3316 5.6139 25.2284 6.5639 24.0275L13.9726 15.0087L14.7169 15.753L13.6464 16.8234C13.3712 17.0985 13.3593 17.5407 13.619 17.8303L19.2003 24.0527C20.298 25.2709 22.1915 25.3216 23.3522 24.1609L24.1607 23.3523C25.3239 22.1893 25.2687 20.2821 24.0394 19.1883C24.0388 19.1879 24.0384 19.1874 24.0379 19.187L17.7868 13.6558C17.4969 13.3993 17.0574 13.4126 16.7835 13.6864L15.7526 14.7172L14.9068 13.8715L16.7117 11.6745C17.6983 12.0683 18.7662 12.1936 19.8337 12.0366ZM3.86873 5.46859L2.15394 3.30374L3.30296 2.15477L5.4679 3.86947L3.86873 5.46859ZM17.3321 15.2093L23.0662 20.2831C23.3566 20.5416 23.5228 20.898 23.5342 21.2867C23.5455 21.6757 23.4002 22.0414 23.125 22.3166L22.3165 23.1251C22.0425 23.3991 21.6784 23.5447 21.2914 23.5343C20.9042 23.5242 20.5481 23.3602 20.2898 23.0734L15.1727 17.3686L17.3321 15.2093ZM15.9372 10.3096L13.3518 13.4568C13.3514 13.4572 13.3511 13.4577 13.3508 13.458L5.42737 23.1034C5.42401 23.1075 5.42064 23.1117 5.41732 23.1159C5.01131 23.6329 4.24676 23.6797 3.78084 23.2138L1.78572 21.2187C1.32088 20.754 1.36551 19.9893 1.88372 19.5824C1.88792 19.5791 1.89207 19.5757 1.89622 19.5723L11.542 11.6491C11.5423 11.6488 11.5425 11.6486 11.5428 11.6484L14.6904 9.06288C14.9576 8.84339 15.0348 8.46688 14.8757 8.1599C13.9526 6.37923 14.2866 4.22869 15.7068 2.80853C16.5814 1.93397 17.7654 1.46922 18.9627 1.46922C19.2207 1.46922 19.4793 1.4908 19.7356 1.5345L17.5951 3.67493C16.9004 4.36966 16.9004 5.50008 17.5951 6.19486L18.8049 7.40457C19.4998 8.0995 20.6307 8.0996 21.3257 7.40457L23.4658 5.26458C23.7123 6.70999 23.2547 8.23026 22.1917 9.29325C20.7715 10.7134 18.6209 11.0473 16.8402 10.1243C16.5332 9.96512 16.1567 10.0424 15.9372 10.3096Z"></path>
</symbol>
<symbol viewBox="0 0 25 25" id="settings">
<path d="M22.6985 9.41406H22.1678C21.9954 8.87451 21.7778 8.35039 21.5172 7.84683L21.8931 7.47095C22.8045 6.56055 22.7801 5.10156 21.8934 4.21582L20.7845 3.10693C19.8993 2.22056 18.44 2.19487 17.5293 3.10659L17.1532 3.48276C16.6496 3.22222 16.1254 3.00464 15.5859 2.83223V2.30142C15.5859 1.03242 14.5535 0 13.2845 0H11.7155C10.4465 0 9.41406 1.03242 9.41406 2.30142V2.83223C8.87456 3.00459 8.35039 3.22217 7.84683 3.48276L7.471 3.10693C6.56216 2.19702 5.10293 2.21836 4.21592 3.10664L3.10688 4.21558C2.22056 5.10093 2.19492 6.56001 3.10659 7.4707L3.48276 7.84687C3.22217 8.35044 3.00464 8.87451 2.83223 9.41411H2.30146C1.03247 9.41406 0 10.4465 0 11.7155V13.2845C0 14.5535 1.03247 15.5859 2.30146 15.5859H2.83223C3.00464 16.1255 3.22217 16.6496 3.48276 17.1532L3.10688 17.5291C2.19551 18.4395 2.21992 19.8984 3.10659 20.7842L4.21553 21.8931C5.10073 22.7794 6.56001 22.8051 7.47065 21.8934L7.84683 21.5172C8.35039 21.7778 8.87456 21.9954 9.41406 22.1678V22.6986C9.41406 23.9676 10.4465 25 11.7155 25H13.2845C14.5535 25 15.586 23.9676 15.586 22.6986V22.1678C16.1255 21.9954 16.6497 21.7778 17.1532 21.5172L17.5291 21.8931C18.4379 22.803 19.8971 22.7816 20.7841 21.8934L21.8932 20.7844C22.7795 19.899 22.8051 18.4399 21.8935 17.5292L21.5173 17.1531C21.7779 16.6495 21.9954 16.1254 22.1678 15.5858H22.6986C23.9676 15.5858 25 14.5534 25 13.2844V11.7154C25 10.4465 23.9675 9.41406 22.6985 9.41406ZM12.5 17.9395C9.50063 17.9395 7.06055 15.4993 7.06055 12.5C7.06055 9.50068 9.50063 7.06055 12.5 7.06055C15.4994 7.06055 17.9395 9.50068 17.9395 12.5C17.9395 15.4993 15.4994 17.9395 12.5 17.9395Z"></path>
</symbol>
<symbol viewBox="0 0 22 30" id="shopping-bag">
<path d="M21.9695 25.9125L20.3701 8.35312C20.327 7.86937 19.922 7.5 19.4364 7.5H16.6239V5.625C16.6239 4.1175 16.0389 2.70375 14.9795 1.64437C13.937 0.6 12.4858 0 10.9989 0C7.89764 0 5.37389 2.52375 5.37389 5.625V7.5H2.56139C2.07577 7.5 1.67077 7.86937 1.62764 8.35312L0.032019 25.9106C-0.063606 26.9587 0.288894 28.0031 0.997644 28.7794C1.70639 29.5556 2.71514 30 3.76702 30H18.2326C19.2826 30 20.2914 29.5556 21.0001 28.7812C21.7108 28.005 22.0614 26.9587 21.9695 25.9125ZM14.7489 7.5H7.24889V5.625C7.24889 3.55687 8.93077 1.875 10.9989 1.875C11.9926 1.875 12.9601 2.2725 13.6539 2.96812C14.3608 3.675 14.7489 4.61812 14.7489 5.625V7.5Z"></path>
</symbol>
<symbol viewBox="0 0 26 25" id="tesla">
<path d="M12.555 24.9999L16.0675 5.24575C19.4155 5.24575 20.4715 5.61287 20.624 7.11138C20.624 7.11138 22.8699 6.27396 24.0027 4.57318C19.5823 2.52488 15.1409 2.4325 15.1409 2.4325L12.5492 5.58911L12.555 5.58871L9.96337 2.43201C9.96337 2.43201 5.52182 2.52448 1.10205 4.57278C2.23382 6.27356 4.48064 7.11098 4.48064 7.11098C4.634 5.61238 5.68875 5.24525 9.01427 5.24288L12.555 24.9999Z"></path>
<path d="M12.5536 1.52078C16.1268 1.49345 20.2168 2.07355 24.4037 3.89838C24.9633 2.89117 25.1071 2.44602 25.1071 2.44602C20.5302 0.635243 16.244 0.0155444 12.5531 0C8.86231 0.0155444 4.5763 0.635341 0 2.44602C0 2.44602 0.204157 2.99433 0.702965 3.89838C4.88907 2.07355 8.97973 1.49345 12.5531 1.52078H12.5536Z"></path>
</symbol>
<symbol viewBox="0 0 25 25" id="user-outlined">
<path d="M21.3389 16.1611C19.9774 14.7997 18.3569 13.7918 16.5888 13.1817C18.4825 11.8775 19.7266 9.69473 19.7266 7.22656C19.7266 3.24185 16.4847 0 12.5 0C8.51528 0 5.27344 3.24185 5.27344 7.22656C5.27344 9.69473 6.51753 11.8775 8.41123 13.1817C6.64316 13.7918 5.02266 14.7997 3.66118 16.1611C1.30024 18.5221 0 21.6611 0 25H1.95312C1.95312 19.1844 6.68442 14.4531 12.5 14.4531C18.3156 14.4531 23.0469 19.1844 23.0469 25H25C25 21.6611 23.6998 18.5221 21.3389 16.1611ZM12.5 12.5C9.59224 12.5 7.22656 10.1344 7.22656 7.22656C7.22656 4.31875 9.59224 1.95312 12.5 1.95312C15.4078 1.95312 17.7734 4.31875 17.7734 7.22656C17.7734 10.1344 15.4078 12.5 12.5 12.5Z"></path>
</symbol>
<symbol viewBox="0 0 21 25" id="user">
<path d="M10.3218 12.0426C11.9762 12.0426 13.4088 11.4492 14.5794 10.2785C15.7499 9.10793 16.3433 7.67571 16.3433 6.02109C16.3433 4.36705 15.7499 2.93463 14.5792 1.76372C13.4085 0.593374 11.976 0 10.3218 0C8.66717 0 7.23494 0.593374 6.0644 1.76391C4.89386 2.93444 4.30029 4.36686 4.30029 6.02109C4.30029 7.67571 4.89386 9.10813 6.06459 10.2787C7.23532 11.449 8.66774 12.0426 10.3218 12.0426Z"></path>
<path d="M20.8579 19.2237C20.8241 18.7366 20.7558 18.2052 20.6553 17.644C20.5538 17.0787 20.4232 16.5443 20.2668 16.0558C20.1052 15.5509 19.8855 15.0523 19.6139 14.5745C19.332 14.0786 19.0009 13.6468 18.6293 13.2915C18.2408 12.9197 17.7651 12.6209 17.215 12.4028C16.6668 12.186 16.0593 12.0761 15.4095 12.0761C15.1543 12.0761 14.9075 12.1808 14.4309 12.4912C14.1375 12.6825 13.7944 12.9037 13.4114 13.1484C13.0839 13.3571 12.6402 13.5526 12.0923 13.7296C11.5576 13.9026 11.0148 13.9903 10.479 13.9903C9.94324 13.9903 9.4006 13.9026 8.8654 13.7296C8.31799 13.5528 7.87434 13.3573 7.54723 13.1486C7.16786 12.9062 6.82454 12.6849 6.5268 12.491C6.05073 12.1806 5.80373 12.0759 5.54852 12.0759C4.8985 12.0759 4.2912 12.186 3.74322 12.403C3.19352 12.6207 2.71764 12.9195 2.32873 13.2917C1.95737 13.6472 1.62606 14.0788 1.34454 14.5745C1.07312 15.0523 0.853394 15.5507 0.69165 16.056C0.535439 16.5444 0.404785 17.0787 0.303314 17.644C0.202797 18.2044 0.134514 18.736 0.100754 19.2243C0.0675659 19.7026 0.0507812 20.1991 0.0507812 20.7005C0.0507812 22.0055 0.46563 23.062 1.28369 23.8412C2.09164 24.61 3.16071 25.0001 4.46076 25.0001H16.4984C17.7985 25.0001 18.8672 24.6102 19.6753 23.8412C20.4936 23.0626 20.9084 22.0059 20.9084 20.7003C20.9082 20.1966 20.8912 19.6998 20.8579 19.2237Z"></path>
</symbol>
</defs>
</svg>
